<?xml version="1.0" encoding="UTF-8" standalone="no"?>
<svg xmlns:rdf="http://www.w3.org/1999/02/22-rdf-syntax-ns#" xmlns="http://www.w3.org/2000/svg" height="868.9" width="634.86" version="1.1" xmlns:cc="http://creativecommons.org/ns#" xmlns:dc="http://purl.org/dc/elements/1.1/" viewBox="0 0 634.85694 868.898">
<g transform="matrix(4 0 0 4 -.000016127 0)">
<rect height="10" width="10" y="42.289" x="62.328" fill="#ccc"/>
<path d="m77.328 0-21 21v4l12 12h5v-5l-9-9 15-15 15 15-9 9v5h5l12-12v-4l-21-21h-4zm-16 41v14h36v-14h-36zm4 2h3v9h-3v-9z" fill="#666"/>
<path d="m135.47 193.98a79.357 79.357 0 0 1 -112.23 0 79.357 79.357 0 0 1 -0.000002 -112.23 79.357 79.357 0 0 1 112.23 0.000012 79.357 79.357 0 0 1 0.00001 112.23z" fill="#00802a"/>
<path d="m14.217 109.21-12.526 12.53a79.357 79.357 0 0 0 -1.6387 14.271l14.164-14.164 12.633 12.631 6.3164 6.3164 18.947-18.947 18.947 18.947 18.949-18.947 12.631 12.631 6.3164 6.3164 18.947-18.947 18.949 18.947 11.348-11.348a79.357 79.357 0 0 0 -1.9258 -10.707l-9.4219 9.4219-18.949-18.947-6.3145 6.3164-12.633 12.631-18.947-18.947-18.949 18.947-18.947-18.947-6.3164 6.3164-12.631 12.631-18.949-18.947zm0 26.072-13.379 13.379a79.357 79.357 0 0 0 2.125 10.508l11.254-11.254 12.633 12.631 6.3164 6.3164 18.947-18.947 18.947 18.947 18.949-18.947 12.631 12.631 6.3164 6.3164 18.947-18.947 18.949 18.947 9.2754-9.2754a79.357 79.357 0 0 0 2.3438 -14.977l-11.619 11.619-18.949-18.947-6.3145 6.3164-12.633 12.631-18.947-18.947-18.949 18.947-18.947-18.947-6.3164 6.3164-12.631 12.631-18.949-18.947z" fill="#7cffa7"/>
</g>
</svg>
