<?xml version="1.0" encoding="UTF-8" standalone="no"?>
<svg id="svg2" xmlns:rdf="http://www.w3.org/1999/02/22-rdf-syntax-ns#" xmlns="http://www.w3.org/2000/svg" xml:space="preserve" height="868.98" viewBox="0 0 741.24695 868.97986" width="741.25" version="1.1" xmlns:cc="http://creativecommons.org/ns#" xmlns:dc="http://purl.org/dc/elements/1.1/"><g id="g10" transform="matrix(1.25 0 0 -1.25 -10.625 980.55)"><g id="g4252" stroke="#231f20"><path id="path12" d="m281.33 90.783c-12.14 1.5049-21.305 3.9229-28.495 7.5215l-3.4331 1.7178 1.3111 5.164c2.5097 9.8897 5.5898 41 6.0786 61.425 0.2739 11.321-0.2524 12.114-5.5933 8.4375-5.3701-3.6924-14.788-8.1386-20.83-9.8291-18.963-5.3154-35.823-0.9424-56.455 14.642l-7.1348 5.3877-4.6318-1.414c-12.144-3.7002-26.325-4.7012-35.615-2.5088-9.769 2.3008-19.098 9.1904-25.049 18.488-1.5127 2.3632-2.8857 4.2998-3.0542 4.2998-0.1641 0-3.1011-0.6797-6.521-1.5088-29.944-7.25-61.325 5.2-77.315 30.69-2.108 3.36-5.596 11.52-5.596 13.08 0 0.4522 2.9438 1.7715 6.5464 2.9297 27.79 8.9317 58.841 25.155 84.943 44.382l5.0742 3.7364-6.1958 4.5195c-8.7388 6.3711-14.923 12.172-21.678 20.322-3.2109 3.8759-5.7573 7.1162-5.6557 7.2002 0.103 0.0849 4.7641 1.6953 10.364 3.584 23.819 8.0371 46.585 20.53 69.172 37.959 10.605 8.1866 10.426 7.6397 3.1309 9.6153-14.587 3.9531-31.771 13.875-44.137 25.474-3.6025 3.3794-6.5463 6.4111-6.5463 6.7363 0 0.3291 4.6279 2.1739 10.287 4.1026 25.513 8.6987 51.907 24.706 73.881 44.807l5.2349 4.7896-4.4902 0.8764c-11.555 2.2495-24.272 7.4009-33.134 13.422-7.2764 4.9385-14.635 11.28-13.52 11.649 0.5581 0.1866 4.7198 1.5528 9.2451 3.0362 23.596 7.7295 47.159 23.186 69.553 45.621l8.9463 8.9648-2.2139 0.5259c-14.729 3.5034-18.982 5.0703-33.43 12.325l-9.9326 4.9868 9.3521 3.1675c11.565 3.9126 16.282 6.0346 23.909 10.77 23.793 14.754 45.415 38.928 64.324 71.9 4.0991 7.1455 5.082 9.3921 4.1982 9.5791-0.6362 0.1314-1.1582 0.4893-1.1582 0.7964 0 0.8467 4.4277 27.902 4.895 29.908 0.3833 1.6333-0.2559 1.4131-8.2266-2.8091-5.0493-2.6748-8.6469-4.187-8.6586-3.6391-0.0103 0.5151 1.2529 8.4609 2.8056 17.652l2.8237 16.713-12.582 12.351c-6.9185 6.7949-12.436 12.5-12.256 12.676 0.1753 0.1787 7.3541 1.334 15.946 2.5684 8.5957 1.2339 16.362 2.4038 17.257 2.5972 1.2793 0.2739 3.3066 3.7773 9.3086 16.063 4.2197 8.6392 7.8652 15.708 8.1059 15.708 0.2417 0 3.9527-7.0576 8.2525-15.686 6.6416-13.338 8.0996-15.748 9.7099-16.089 1.7578-0.3687 32.692-4.8838 33.474-4.8838 0.1894 0-5.4756-5.67-12.596-12.6l-12.943-12.596 3.0293-17.702c1.6621-9.7358 2.9697-17.704 2.9033-17.704-0.0644 0-3.7334 1.8892-8.1504 4.1929-4.4131 2.3056-8.2265 3.9936-8.4707 3.7485-0.2451-0.2412 0.6211-7.0937 1.9209-15.226 1.3008-8.1313 2.3643-15.04 2.3604-15.347-0.004-0.3101-1.045-0.562-2.3125-0.562h-2.3086l5.0371-9.5386c11.04-20.91 23.438-38.303 36.963-51.856 18.064-18.105 33.781-26.927 56.887-31.936l6.3564-1.3765-8.2236-4.4238c-13.903-7.478-23.566-10.737-36.835-12.414l-6.9033-0.8696 5.7569-6.3418c24.268-26.73 52.579-44.09 82.119-50.347 4.1133-0.874 7.9707-1.7461 8.5732-1.9433 0.669-0.2163-0.6386-1.312-3.3681-2.8242-34.068-18.883-37.832-20.564-53.836-24.049l-2.2461-0.4892 5.2383-4.8882c6.8242-6.3706 22.811-18.346 31.797-23.818 15.558-9.4726 35.844-17.686 51.809-20.98 3.6025-0.7421 6.5469-1.5888 6.5469-1.8857 0-0.8911-13.843-13.103-20.195-17.812-11.146-8.2627-24.56-15.569-35.168-19.16-2.2617-0.7637-4.4092-1.6338-4.7686-1.9327-0.792-0.6543 12.75-10.737 23.062-17.174 19.728-12.314 38.022-20.07 59.763-25.346 4.8692-1.1787 8.9942-2.2861 9.1651-2.458 0.5371-0.541-18.54-18.773-23.508-22.467-2.6114-1.9395-8.0918-5.2022-12.18-7.2471l-7.4307-3.7187 8.2197-5.7949c27.429-19.328 55.55-32.437 86.243-40.195l12.505-3.164-3.7998-6.6817c-11.135-19.592-13.052-22.463-18.963-28.402-4.5264-4.5479-7.3506-6.6748-11.595-8.7168-8.0694-3.8906-12.089-4.6211-22.727-4.1387-8.4502 0.3799-11.361 0.9541-23.661 4.6612-0.7119 0.2158-2.1885-1.1621-4.0664-3.7998-4.4414-6.2315-14.415-15.952-20.669-20.146-11.212-7.5147-22.36-10.623-35.483-9.8867-8.7051 0.4834-15.876 2.2187-26.759 6.4746l-7.8037 3.0468-5.541-5.4433c-10.591-10.407-21.17-15.949-34.858-18.262-6.2793-1.0596-8.4102-1.1075-15.179-0.3291-8.7969 1.0117-20.009 4.4277-28.382 8.6435-5.2559 2.6484-5.3038 2.6553-5.3038 0.9541 0-5.4687 5.6954-35.618 10.612-56.167 1.6661-6.9638 2.7247-12.878 2.3711-13.225-0.8994-0.873-22.124-4.2744-32.436-5.1953-11.208-1.0039-25.338-0.8584-35.165 0.3623z" fill="#e5ffe5"/><path id="path14" d="m314.62 99.407c9.2568 0.793 22.85 2.7403 23.472 3.3574 0.1933 0.1944-0.8662 5.6563-2.3496 12.133-3.1524 13.747-6.8828 33.967-8.2813 44.882-0.5371 4.2129-1.1904 7.8691-1.4472 8.125-0.2559 0.2559-3.4258-0.7451-7.0498-2.2246-11.412-4.6611-17.509-6.0137-27.166-6.0274-9.2817-0.0146-14.791 1.3116-21.582 5.1905-1.79 1.0224-3.5537 1.6728-3.9268 1.4424-0.372-0.2295-0.6767-2.7168-0.6767-5.5293 0-7.8799-2.1323-32.927-3.7617-44.178-0.8072-5.5537-1.4649-10.507-1.4683-11.004-0.008-1.2314 7.8394-3.5615 16.863-5.0088 12.489-1.998 23.548-2.3408 37.375-1.1582z" fill="#803300"/><path id="path16" d="m388.63 165.71c9.8847 2.455 21.911 10.606 29.534 20.028 2.2217 2.7402 4.4102 4.8223 4.8672 4.625 22.094-9.5488 28.421-11.307 40.48-11.259 7.7774 0.0293 9.7061 0.2998 14.438 2.0127 11.522 4.1758 21.847 12.644 32.134 26.361 3.0859 4.1133 5.6836 7.5615 5.7676 7.6641 0.084 0.1025 2.3164-0.6944 4.958-1.7676 13.389-5.4541 27.299-6.96 36.889-4.001 9.3632 2.8936 17.55 10.953 25.484 25.09 1.9688 3.5078 3.4551 6.4736 3.3057 6.5908-0.1533 0.1133-2.6328 0.8252-5.5127 1.5742-9.293 2.4219-22.945 7.2188-33.156 11.646l-9.9649 4.3223-13.228-5.0889c-107.13-41.19-216.6-50.47-320.82-27.19l-12.092 2.6993-2.5532-1.9493c-3.9683-3.0253-7.6211-4.2382-12.736-4.2314-8.5074 0.0146-15.178 4.541-18.806 12.765-1.6885 3.8135-2.1479 4.2627-5.4653 5.3477-18.097 5.9248-46.709 18.331-61.511 26.676l-6.7324 3.7949-6.9678-4.1309c-11.69-6.9306-29.491-15.604-42.879-20.896-6.9966-2.7657-12.845-5.1436-12.999-5.2823-0.6572-0.6064 4.2486-7.7851 8.0811-11.833 10.247-10.82 23.208-17.323 38.413-19.274 8.6171-1.1025 18.305 0.0117 27.986 3.2227 3.8613 1.2793 7.1235 2.1953 7.2475 2.0381 0.1285-0.1602 1.8858-3.1192 3.9053-6.5752 4.0918-6.9952 9.0747-12.476 13.925-15.317 9.3926-5.5049 23.805-5.5508 41.314-0.1387 6.9922 2.1621 5.9902 2.5059 17.268-5.9551 4.5264-3.3935 10.42-7.3642 13.093-8.8183 18.652-10.152 38.303-7.6748 58.22 7.3281 3.0108 2.2685 5.7574 4.125 6.1084 4.125 0.3467 0 1.8155-1.6006 3.2613-3.5557 9.3964-12.705 21.985-19.095 35.085-17.802 7.3355 0.7246 16.402 3.4931 26.744 8.165l8.7939 3.9746 6.6445-3.9971c18.671-11.229 35.761-14.871 51.47-10.972z" fill="#008000"/><path id="path18" d="m346.64 223.59c57.255 3.4385 110.04 14.628 166.62 35.326 6.792 2.4843 12.607 4.7461 12.925 5.0263 0.3222 0.2823-1.1944 1.4688-3.3643 2.6387-7.876 4.2373-22.104 13.374-31.092 19.96l-9.1914 6.7373-7.4853-0.8155c-4.1163-0.4492-9.2422-0.8212-11.387-0.8291-3.8828-0.0175-3.9043-0.0293-6.1406-3.7988-2.9189-4.9248-10.272-11.95-15.018-14.357-6.5683-3.3242-11.986-4.5068-20.147-4.3945-4.1133 0.0546-8.6621 0.3838-10.101 0.7314-2.3389 0.5586-2.916 0.3613-5.3926-1.835-5.0967-4.5156-13.279-5.746-20.593-3.1005-2.1142 0.7627-2.7978 0.7041-4.5254-0.4024-4.9834-3.1894-11.23-5.9619-16.446-7.2949-11.848-3.0322-20.695-1.3408-39.714 7.5762l-8.1279 3.8134-7.7774-3.7294c-11.555-5.5381-19.018-7.6827-28.352-8.1543-12.23-0.6133-20.83 2.2685-36.801 12.33l-7.1572 4.5078-8.2735-2.5097c-10.657-3.2295-19.22-4.3184-26.197-3.3281-10.338 1.4648-20.582 6.7177-29.156 14.952l-3.9634 3.8066-6.5097-1.2314c-4.8848-0.9238-8.94-1.1279-16.234-0.8252-10.558 0.4424-16.955 1.8262-26.804 5.8018l-5.8516 2.3632-2.751-2.0127c-1.5126-1.1113-6.3496-4.5781-10.748-7.708-4.3989-3.1318-7.854-5.9228-7.6831-6.207 0.5449-0.8799 24.217-12.34 33.682-16.308 10.035-4.209 29.58-11.512 29.879-11.164 0.1016 0.1211 0.8833 1.5996 1.7349 3.2842 3.0464 6.0459 9.1582 10.023 16.271 10.598 12.585 1.0078 22.522-8.5557 21.941-21.114-0.1055-2.2656-0.0288-4.2822 0.1645-4.4795 0.7378-0.7344 21.762-5.1182 36.203-7.5439 16.859-2.8311 38.288-5.3145 53.865-6.2432 15.427-0.916 44.978-0.9502 59.697-0.0664z" fill="#008000"/><path id="path20" d="m181.37 232.84c3.3867 1.4131 5.8701 5.1358 6.2359 9.3438 1.0371 11.902-15.501 16.661-20.925 6.0244-4.9283-9.6631 4.5654-19.6 14.689-15.368z" fill="#f0f"/><path id="path22" d="m365.5 266.54c2.0577 0.6357 5.4903 2.166 7.6319 3.3964l3.8867 2.2481-1.5488 3.5068c-3.127 7.0645-1.6104 15.956 3.7597 22.076 5.2237 5.9463 16.011 7.9775 23.46 4.4131 7.4746-3.5811 12.493-12.221 11.617-20.002-0.333-2.9658-0.2012-3.3056 1.4316-3.7148 0.9903-0.2481 5.0996-0.3223 9.1328-0.1572 6.4258 0.2558 7.9454 0.5957 12.267 2.7216 5.8457 2.878 11.562 8.7422 14.832 15.219l2.2109 4.3799h6.002c14.298 0 28.158 2.8428 37.971 7.7812 4.8916 2.4658 17.041 11.351 19.887 14.547 1.126 1.2607 1.2021 1.6592 0.373 1.9512-0.5693 0.2041-3.8984 1.2568-7.3935 2.3369-3.5 1.082-9.6113 3.2891-13.583 4.9072l-7.2178 2.9444-12.98-3.3682c-33.606-8.7236-62.846-13.911-97.524-17.305-23.702-2.3203-82.816-2.2217-98.431 0.1602-2.6484 0.4062-2.6811 0.3759-5.0732-4.4825-2.8135-5.7129-6.6421-8.9316-12.75-10.707-12.146-3.5361-25.521 5.958-25.521 18.12 0 1.3623-0.2886 2.6553-0.6392 2.874-0.3506 0.2159-5.4834 1.4219-11.409 2.6748-27.46 5.8184-54.436 14.411-76.625 24.405l-9.0879 4.0957-7.4204-4.6728c-9.896-6.2315-26.484-14.622-36.812-18.619-4.6137-1.7861-8.3882-3.4775-8.3882-3.7627 0-0.873 9.5093-9.4648 15.282-13.813 21.345-16.062 45.178-21.438 65.73-14.823l3.5723 1.1504 7.0693-6.7549c5.502-5.2607 8.5049-7.4668 13.576-9.9804l6.5122-3.2247 9.7798 0.0645c9.3115 0.0625 10.244 0.2119 19.42 3.1465 11.062 3.5351 9.1661 3.8535 20.801-3.4746 13.626-8.585 20.892-11.332 29.962-11.332 8.4609 0 21.941 4.4571 32.904 10.883l4.5518 2.666 12.048-5.5674c11.3-5.2197 16.969-7.4111 21.398-8.2588 3.1123-0.5996 11.364 0.127 15.335 1.3516z" fill="#008000"/><path id="path24" d="m400.24 274.32c3.5547 2.6006 4.9101 5.2168 4.9101 9.4727 0 6.5136-4.4424 11.144-10.66 11.124-6.9737-0.0225-11.412-4.3994-11.412-11.252 0-8.7939 10.272-14.383 17.162-9.3447z" fill="#0f0"/><path id="path26" d="m264.12 309.53c6.9737 4.9941 6.8897 13.805-0.186 19.047-1.4219 1.0527-3.2041 1.5195-5.8023 1.5195-4.2334 0-6.7827-1.4834-9.6035-5.5918-1.4355-2.0937-1.6958-3.2588-1.4316-6.5039 0.2588-3.2471 0.7666-4.415 2.8525-6.5684 4.0586-4.1855 9.8858-4.9707 14.171-1.9023z" fill="#f60"/><path id="path28" d="m364.07 322.36c36.104 2.3897 77.542 9.1328 110.58 17.999l2.915 0.7823-5.9072 3.3535c-8.6728 4.9199-23.592 15.076-31.716 21.59l-7.1094 5.6992-7.1055-0.4648c-3.9082-0.2559-9.1845-0.167-11.72 0.1982l-4.6103 0.6641-4.7412-3.6895c-17.963-13.974-37.266-15.344-59.999-4.2519l-5.8808 2.8682-9.458-3.7276c-13.064-5.1494-22.036-7.3935-29.568-7.3935-9.521 0-20.287 3.5107-31.315 10.211l-4.5733 2.7764-4.5449-1.6299c-15.741-5.6446-33.097-5.0488-49.384 1.6953l-6.6806 2.7656-3.0323-1.3623c-2.0634-0.9238-4.7085-1.3447-8.2822-1.3047-6.1553 0.0664-10.195 1.8115-14.44 6.2393l-2.729 2.8467-6.8277-5.7725c-3.7519-3.1748-9.4033-7.7148-12.556-10.086-3.1524-2.375-5.732-4.545-5.732-4.8291 0-1.5899 30.705-13.01 49.314-18.343 13.739-3.9385 36.988-9.3926 40.023-9.3887 0.8628 0 2.8599 1.377 4.4541 3.0723 7.8023 8.2881 21.201 8.4092 29.086 0.2549 1.5386-1.5879 3.3828-4.3067 4.0986-6.042l1.3013-3.1485 6.001-0.5371c14.778-1.3183 22.449-1.6181 44.605-1.7207 13.001-0.0625 28.991 0.2451 35.537 0.6758z" fill="#008000"/><path id="path30" d="m313.13 367.21c2.8828 0.9023 10.013 3.5029 15.85 5.7793l10.612 4.1387 7.3428-3.7559c21.828-11.175 37.862-9.8848 54.702 4.3945l5.2968 4.4932 3.2266-0.9199c5.2744-1.502 18.671-1.1182 26.394 0.7558 8.4863 2.0606 19.986 6.6563 27.705 11.076 7.1709 4.106 18.905 12.165 20.838 14.313 1.377 1.5307 1.3555 1.5488-2.9922 2.7988-12.942 3.728-31.38 12.585-45.748 21.981l-9.1953 6.0136-4.2803-2.1596c-24.101-12.166-56.595-21.276-89.927-25.207-15.646-1.8486-51.11-2.2441-68.079-0.7607-30.662 2.6816-64.153 9.3379-91.734 18.238l-9.064 2.9223-5.8989-3.6499c-7.4532-4.6069-22.727-12.352-30.793-15.61-3.4009-1.3735-6.0635-2.8457-5.9219-3.2769 0.4683-1.4101 14.972-10.937 21.086-13.856 8.2334-3.9268 17.684-6.794 24.013-7.2881l5.3067-0.4121 0.4272 4.1162c0.5347 5.1807 2.5982 9.2647 6.42 12.717 3.7807 3.4155 5.1167 4.1172 9.7641 5.1148 12.146 2.604 24.078-7.2217 23.99-19.76-0.0181-2.5352-0.5181-5.9541-1.1138-7.6016-0.5918-1.6484-1.0816-3.039-1.0884-3.0937-0.004-0.0557 1.7568-0.8086 3.9155-1.6699 8.2456-3.2989 13.265-4.1983 23.38-4.1797 10.02 0.0185 12.418 0.5586 24.692 5.5859 2.1118 0.8652 2.6563 0.668 9.1402-3.2842 7.6752-4.6797 13.684-7.5224 19.288-9.122 5.1763-1.4756 15.764-0.9278 22.445 1.1699z" fill="#008000"/><path id="path32" d="m198.77 380c4.6988 2.8896 6.2144 10.262 3.0723 14.927-6.0786 9.0157-19.347 5.9878-20.552-4.6904-1.06-9.3926 9.1358-15.361 17.48-10.236z" fill="#0ff"/><path id="path34" d="m331.46 419.9c28.969 3.4604 53.514 9.666 76.31 19.304 3.9091 1.6518 8.0839 3.5029 9.2793 4.1167l2.1699 1.1103-3.6602 3.1016c-2.0137 1.7056-7.376 6.5249-11.921 10.708-6.0781 5.5933-8.9502 7.73-10.856 8.0811-2.4336 0.4419-2.751 0.2558-5.2168-3.1163-3.8828-5.3085-9.3311-8.0224-16.077-8.0185-4.497 0-5.8925 0.3506-9.8603 2.4766l-4.6211 2.4736-4.044-1.5122c-15.676-5.8638-33.828-2.1958-51.312 10.374l-6.2397 4.4863-3.6123-2.6528c-8.6255-6.334-19.146-9.5894-31.042-9.6035-11.92-0.0142-22.846 3.331-30.394 9.3086l-2.937 2.3266-3.9092-1.56c-4.417-1.7608-12.06-3.8169-14.353-3.8618-0.8403-0.0176-4.0513-2.4068-7.1392-5.3184-7.6386-7.1997-19.726-17.6-24.534-21.114-2.1811-1.5932-3.8247-3.0361-3.6567-3.2045 0.5518-0.5479 20.837-6.2798 30.343-8.5704 22.649-5.4536 41.745-8.4165 68.923-10.689 8.564-0.7158 48.836 0.2192 58.36 1.3555z" fill="#008000"/><path id="path36" d="m377.44 465.88c4.831 2.7471 6.6093 10.045 3.6904 15.143-1.9326 3.3818-7.5908 6.2358-11.069 5.5849-4.0586-0.7632-7.3721-3.4746-8.9756-7.3501-1.2598-3.0356-1.333-3.9131-0.5518-6.5175 2.3047-7.6929 9.9697-10.802 16.906-6.8599z" fill="#00f"/><path id="path38" d="m349.56 466.92c2.666 1.1426 2.7431 1.2783 2.0566 3.668-3.664 12.781 8.3985 26.653 21.802 25.067 8.9902-1.066 16.571-8.2046 18.189-17.125 0.4483-2.459 0.8213-2.8423 3.2793-3.3653 1.5313-0.3252 6.3135-0.5732 10.635-0.5517 6.8359 0.0366 8.7676 0.3545 14.865 2.4472 6.2764 2.1558 22.686 9.8159 24.293 11.343 0.3477 0.3262-1.169 1.1738-3.3643 1.8823-16.786 5.4136-36.831 17.67-54.797 33.506l-2.919 2.5717-6.4336-2.6118c-22.002-8.9292-46.201-15.475-71.525-19.347-11.784-1.8013-42.565-2.2149-55.265-0.7378-12.906 1.497-25.615 4.31-34.887 7.7187-10.283 3.7774-9.3999 3.8242-15.942-0.8701-11.759-8.4351-26.277-16.618-35.918-20.238l-3.6025-1.3555 3.6025-2.25c5.4868-3.4306 13.586-6.9961 20.139-8.8662 4.7461-1.3559 7.8213-1.6914 15.636-1.7026 11.09-0.0215 17.235 1.4277 25.75 6.0639 4.4829 2.4449 4.8471 2.5274 5.5385 1.2535 1.3545-2.5069 6.5274-6.9707 10.283-8.8736 8.084-4.0952 20.64-5.5166 29.875-3.3789 6.8057 1.5738 14.229 5.5489 19.672 10.539l5.0376 4.6142 4.6797-4.3769c7.6797-7.1821 17.762-13.129 26.569-15.665 4.7676-1.3736 18.989-0.9747 22.748 0.6401z" fill="#008000"/><path id="path40" d="m294.91 512.38c11.548 1.1435 25.126 3.4853 37.303 6.437 10.725 2.601 33.582 9.875 40.718 12.957l3.6855 1.5937-3.7226 3.897c-4.3907 4.5991-9.001 9.8057-11.27 12.724-1.1982 1.545-3.0546 2.4839-7.1015 3.6055-3.0108 0.8369-7.1065 2.3374-9.0928 3.3359-1.9873 0.9971-3.916 1.815-4.2891 1.815-0.3691 0-2.5283-1.1865-4.8007-2.6406-11.646-7.4488-28.272-11.186-41.776-9.3892-6.3027 0.8364-6.5176 0.8149-9.2793-0.9936-3.7773-2.4732-9.1914-3.7334-13.743-3.1929-4.6548 0.5522-10.741 3.8032-13.232 7.0693-1.0737 1.4141-2.3345 2.3169-2.9116 2.0967-0.5591-0.2148-3.8687-0.7451-7.3531-1.1802l-6.3388-0.7846-3.5-3.9097c-1.9219-2.148-8.1538-8.4971-13.846-14.108l-10.349-10.195 2.0533-0.8374c7.6025-3.0909 22.215-6.4512 34.595-7.9532 9.751-1.1831 33.901-1.3735 44.251-0.3466z" fill="#008000"/><path id="path42" d="m278.83 552.49c10.613 5.0332 6.8139 21.21-4.9825 21.21-8.5381 0-13.549-8.1866-9.7798-15.971 2.7076-5.5889 9.1812-7.8867 14.762-5.2383z" fill="#f00"/><path id="path44" d="m316.27 557.29c6.5722 1.6806 15.653 6.2578 20.706 10.437l3.6524 3.021 2.3349-1.7793c7.1934-5.4829 16.512-8.2022 28.144-8.208 8.3984-0.008 13.583 0.77 22.31 3.3496l5.4727 1.6181-8.2158 3.9131c-13.305 6.3306-21.714 12.38-35.012 25.188-5.5166 5.3149-8.1065 7.3135-9.4795 7.3135-3.4854 0-23.881 3.7153-33.38 6.082-16.255 4.0523-28.943 9.1807-35.519 14.368l-2.9228 2.3056-1.19-1.8051c-7.7675-11.745-27.666-32.567-39.524-41.361-7.4634-5.5346-20.502-13.337-24.03-14.382-2.583-0.7632-1.3559-1.4975 7.3677-4.4121 10.597-3.5395 19.698-4.6035 29.299-3.4268l7.3648 0.9014v2.7769c0 4.2715 2.0561 9.352 5.2632 12.995 7.5844 8.6143 21.59 8.9248 29.332 0.6465 4.5039-4.815 6.0562-9.1187 5.6807-15.763l-0.2954-5.2422 2.6406-0.3223c4.5268-0.5542 14.239 0.3145 20.001 1.7872z" fill="#008000"/><path id="path46" d="m333.43 621.53c-6.8379 9.7388-14.601 22.93-20.398 34.657l-3.6054 7.2959h-6.1885c-3.4053 0-6.1919-0.2847-6.1919-0.6353 0-1.0234-8.0479-15.582-12.844-23.234l-4.4096-7.0327 1.604-1.7095c3.6855-3.9194 17.487-9.6699 32.378-13.491 7.7266-1.98 25.349-5.476 25.783-5.1133 0.1318 0.1084-2.626 4.2769-6.1269 9.2637z" fill="#008000"/><path id="path48" d="m313.5 672.89c0 0.2378-1.3633 8.5513-3.0293 18.474-1.6621 9.9253-2.9267 18.612-2.8057 19.303 0.1836 1.0381 1.6407 0.4971 8.2637-3.0688 4.4238-2.3779 8.0479-3.938 8.0518-3.4595 0.007 0.4795-0.7158 5.4141-1.6074 10.966l-1.6153 10.102 7.5918 7.4336c4.1748 4.0913 7.5947 7.6387 7.5947 7.8916 0 0.2485-4.4648 1.0737-9.915 1.8301-5.4502 0.7592-10.444 1.6513-11.094 1.9834-0.6475 0.3296-3.1563 4.8296-5.5752 9.9985-2.4219 5.166-4.5855 9.3853-4.8077 9.3706-0.2226-0.0117-2.4106-4.2451-4.8545-9.4038-2.4472-5.1616-4.9765-9.6514-5.6118-9.9766-0.6391-0.3242-5.6259-1.2129-11.076-1.9721-5.4502-0.7564-9.9151-1.6001-9.9151-1.8745 0-0.2735 3.3687-3.7334 7.482-7.69 4.833-4.6421 7.4814-7.748 7.4814-8.7676 0-0.8647-0.6938-5.6035-1.5449-10.527-0.8477-4.9214-1.4356-9.21-1.3076-9.5244 0.1308-0.3179 3.854 1.3476 8.2778 3.7007 6.8892 3.6606 8.0439 4.0698 8.0439 2.8569 0-1.3735-4.8037-31.866-5.6733-36.016l-0.4316-2.0567h9.039c4.9678 0 9.0381 0.1934 9.0381 0.4273z" fill="#ff0"/></g></g></svg>
