<?xml version="1.0" encoding="UTF-8" standalone="no"?>
<svg xmlns:rdf="http://www.w3.org/1999/02/22-rdf-syntax-ns#" xmlns="http://www.w3.org/2000/svg" height="868.9" width="634.86" version="1.1" xmlns:cc="http://creativecommons.org/ns#" xmlns:dc="http://purl.org/dc/elements/1.1/" viewBox="0 0 634.85694 868.898">
<g transform="matrix(4 0 0 4 -.000016127 0)">
<rect height="10" width="10" y="42.289" x="62.328" fill="#ccc"/>
<path fill="#666" d="m77.328 0-21 21v4l12 12h5v-5l-9-9 15-15 15 15-9 9v5h5l12-12v-4l-21-21h-4zm-16 41v14h36v-14h-36zm4 2h3v9h-3v-9z"/>
<path d="m135.47 193.98a79.357 79.357 0 0 1 -112.23 0 79.357 79.357 0 0 1 -0.000002 -112.23 79.357 79.357 0 0 1 112.23 0.000012 79.357 79.357 0 0 1 0.00001 112.23z" fill="#2a0080"/>
<path d="m8.8008 101.76a79.357 79.357 0 0 0 -3.6094 8.1562h148.36a79.357 79.357 0 0 0 -3.5234 -8.0449l-141.23-0.12zm146.94 14.74-152.76 0.17a79.357 79.357 0 0 0 -0.28125 41.412l153.33-0.13a79.357 79.357 0 0 0 -0.29 -41.45zm-150.95 48.23a79.357 79.357 0 0 0 3.4336 8.1309l142.3-0.0937a79.357 79.357 0 0 0 3.418 -8.0371h-149.16z" fill="#a77cff"/>
</g>
</svg>
