<?xml version="1.0" encoding="UTF-8" standalone="no"?>
<svg xmlns:rdf="http://www.w3.org/1999/02/22-rdf-syntax-ns#" xmlns="http://www.w3.org/2000/svg" height="868.9" width="634.86" version="1.1" xmlns:cc="http://creativecommons.org/ns#" xmlns:dc="http://purl.org/dc/elements/1.1/" viewBox="0 0 634.85694 868.898">
<g transform="matrix(4 0 0 4 -.000016127 0)">
<rect height="10" width="10" y="42.289" x="62.328" fill="#ccc"/>
<path fill="#666" d="m77.328 0-21 21v4l12 12h5v-5l-9-9 15-15 15 15-9 9v5h5l12-12v-4l-21-21h-4zm-16 41v14h36v-14h-36zm4 2h3v9h-3v-9z"/>
<path d="m135.47 193.98a79.357 79.357 0 0 1 -112.23 0 79.357 79.357 0 0 1 -0.000002 -112.23 79.357 79.357 0 0 1 112.23 0.000012 79.357 79.357 0 0 1 0.00001 112.23z" fill="#80002a"/>
<path d="m94.37 195.26c-0.97022-0.75601-3.1792-1.1935-7.9582-1.5763-0.15495-0.0124-0.8712-0.51858-1.5917-1.1248-1.7273-1.4534-4.2273-1.21-9.4241 0.91776-2.3667 0.96899-4.7375 1.6219-6.381 1.7573l-2.615 0.22v-7.1484l-2.4059 0.17835c-1.3233 0.0981-6.1718 0.36132-10.774 0.58495-4.6027 0.22362-10.157 0.687-12.344 1.0297-9.773 1.5321-13.132-0.18057-10.643-5.4261l0.65428-1.3788 7.8188-0.26086c37.327-1.2454 58.763-10.975 70.381-31.945 1.1439-2.0646 1.2492-2.0609 5.432 0.1927 10.368 5.5858 12.959 13.096 4.519 13.096-5.6077 0-4.7283 2.2276 3.9532 10.014 6.7433 6.0478 8.4715 9.0496 6.5884 11.444-1.4024 1.7829-3.1542 2.0248-17.482 2.4143-15.787 0.42917-14.315-0.0229-14.315 4.3968v3.5319l-1.1507-0.0233c-0.63287-0.0128-1.6504-0.41261-2.2611-0.88849zm-61.296-15.27c0.15797-0.15795 1.7428-1.0623 3.5218-2.0097 2.7104-1.4434 3.5277-2.1427 5.0439-4.3155l1.8093-2.5929-1.8093-0.007c-6.7723-0.0257-6.9504-3.4077-0.42618-8.094 7.0147-5.0386 8.8683-7.3656 8.8683-11.133v-1.6871h-2.4734c-6.465 0-6.2398-6.3665 0.41556-11.746 2.8611-2.3124 2.7141-2.3115 5.2076-0.0326 7.5431 6.894 17.906 9.3608 41.726 9.933 6.8465 0.16446 12.444 0.41153 12.44 0.54905-0.004 0.13753-1.2222 1.9447-2.7058 4.0159-13.192 18.417-34.367 27.407-64.557 27.407-4.0413 0-7.2186-0.12925-7.0607-0.28722zm47.971-34.72c-14.189-1.3005-29.697-7.2726-23.118-8.9023 13.234-3.2781 30.777-20.449 34.012-33.29 0.74597-2.9612 0.87516-3.0023 3.8165-1.2155 8.0993 4.92 7.6746 9.6731-1.0069 11.271-3.9413 0.72553-0.81454 5.5164 8.7763 13.447 10.286 8.5054 11.609 12.263 4.3242 12.278-5.1896 0.0108-5.3758 0.38525-2.0086 4.0383 2.1415 2.3232-11.303 3.61-24.795 2.3732zm-25.21-13.3c4.3063-4.0558 4.3163-4.0011-0.73224-4.0011h-4.1843l0.000587-1.9875c0.000588-3.0889 1.0212-4.5095 6.6941-9.3212 6.0674-5.1462 7.1132-6.4764 7.1132-9.0468v-1.821h-1.9037c-7.1248 0-5.7134-5.3647 3.9759-15.112 3.5643-3.5857 5.3169-5.7261 6.6809-8.1593 4.2777-7.6308 8.135-5.7119 12.976 6.455 0.944 2.3727 2.274 5.4187 2.9556 6.769l1.2393 2.455-0.83709 3.2732c-3.1921 12.482-14.995 24.43-31.073 31.453-6.5848 2.8766-6.8743 2.7814-2.9056-0.95635z" fill="#ff7ca7"/>
</g>
</svg>
