<?xml version="1.0"?>
<svg xmlns:rdf="http://www.w3.org/1999/02/22-rdf-syntax-ns#" xmlns="http://www.w3.org/2000/svg" xmlns:cc="http://creativecommons.org/ns#" xmlns:dc="http://purl.org/dc/elements/1.1/" xmlns:svg="http://www.w3.org/2000/svg" id="svg5942" viewBox="0 0 572.04 800" version="1.1">
  <g id="layer1" transform="translate(-142.86 -41.648)">
    <g id="g6595" transform="matrix(1.1294 0 0 1.1294 -18.487 -108.92)">
      <path id="path6593" transform="translate(-5.7143 9.2857)" fill="#666" d="m608.57 806.65c0 14.202-102.97 25.714-230 25.714s-230-11.513-230-25.714c0-14.202 102.97-25.714 230-25.714s230 11.513 230 25.714z"/>
      <path id="path5966" fill="#00a2ff" d="m231.43 509.51c21.691-116.54 37.856-226.14 184.63-208.52 31.912 5.0828 28.707-12.33 62.66 2.2864 28.451 8.1562 65.163 12.628 90.024-7.2146 13.108-12.801 8.4236-19.031 14.112-20.837 8.6624-2.7503 31.15-2.5103 32.857 5.7143 0.27007 67.611-63.519 93.998-123.57 90 8.7029 49.159 0.43858 77.51-9.4949 124.36-0.58902 3.2724 1.6644 16.623 3.0304 19.596 6.7292 14.646 18.218 24.357 20.75 40.332 10.954 69.116 20.84 140.05 14.286 210-70.714 1.9048-141.43 3.8095-212.14 5.7143-19.395-60.535-22.903-124.21-12.143-186.43 6.0162-34.786 20.38-41.427 26.429-62.857 2.2846-8.094 5.2371-20.679-1.4286-25.714-7.3137-5.5247-14.82-32.029-17.857-30.714-1.3973 9.0854-12.909 54.789-26.393 63.066-10.564 6.4846-29.322-12.352-45.75-18.781z"/>
      <path id="path5968" fill="#0000ad" d="m595.78 273.62c-0.60671-0.00041-1.2142 0.0143-1.8125 0.0312-4.3511 0.12302-8.418 0.70302-11.125 1.5625-4.4512 1.4133-2.5704 5.5476-7.8125 13.406 11.231 8.8786 26.317 9.8052 27.531 39.344 8.3604-12.653 13.231-28.247 13.156-47.031-1.1006-5.301-10.837-7.3063-19.938-7.3125v0.00005zm-113.44 76.688c2.3942 1.8555 9.0694 9.7417 9.8125 20.625 17.651 1.1752 35.612-0.27461 52.188-4.625-26.345 0.17295-46.766-5.3991-62-16zm-154.03 43.94-24.43 70.94c6.8036 9.7534 9.9346 21.368 17.562 30.75 6.6657 5.0352 3.6908 17.625 1.4062 25.719-6.0488 21.43-20.39 28.058-26.406 62.844-1.0807 6.2486-2.021 12.508-2.8125 18.781 14.49-30.052 28.361-62.026 57.895-88.318l45.98-7.58c-3.6692 23.487-7.7116 46.103-3.5312 87.906 10.254-5.4149 21.735-7.1488 33.312-8.5938-10.868-23.113-9.5232-50.806-10.094-77.781l23.25 2c7.466 47.753 8.1834 92.507 3.5312 134.88 12.722-4.5376 21.983-17.15 38.375-13.125-1.8023-41.417-23.839-82.833-35.844-124.25l19.166 8.5761c19.417 15.471 31.232 38.544 44.209 60.455-1.1272-7.4234-2.267-14.833-3.4375-22.219-2.5317-15.974-14.021-25.698-20.75-40.344-1.3661-2.9732-3.6203-16.321-3.0312-19.594 4.0758-19.222 7.8242-35.322 10.281-51.031-5.1419 15.637-5.6501 33.011-20.688 44.938 5.6963-14.285 4.9636-33.392 5.5625-51.5-8.2723 15.916-12.499 37.428-34.344 43.938-10.585 3.1542-8.6449-8.3665-11.625-13.125 0 0-13.992 24.897-24.75 22.219-7.14-1.8-7.6-20.74-7.6-20.74s-16.109 16.636-26.25 15.656c-6.5277-0.63039-14.656-13.125-14.656-13.125s-5.7641 15.327-12.625 17.188c-7.7859 2.1115-17.967-2.7377-22.219-9.5938-15.106-24.362 4.5625-85.875 4.5625-85.875zm-71.156 3.0312c-11.54 33.4-18.3 72.41-25.71 112.22 16.429 6.4286 35.186 25.266 45.75 18.781 7.12-4.3707 13.679-19.16 18.5-33.5-14.21 15.736-22.44 10.77-22.438-9.125-42.756 40.77-5.5794-102.38-16.094-88.375zm265.6 312.66s-6.4179 18.933-14.125 24.219c-16.601 11.386-39.736 6.4814-59.625 9.5938-7.7344 1.2104-16.201 6.9999-23.219 3.5312-7.2218-3.5693-11.625-21.188-11.625-21.188s-17.361 18.807-28.781 23.719c-15.119 6.5026-32.559 5.3182-49 6.0625-10.849 0.49114-32.562-1.0625-32.562-1.0625 1.4676 5.3999 3.0347 10.771 4.75 16.125l212.16-5.7188c1.7219-18.379 2.2997-36.818 2.0312-55.281z"/>
      <path id="path5976" stroke-linejoin="round" d="m316.95 489.54c6.5519 4.0023 12.774 4.6038 20.69 4.7116 20.385 0.27749 64.476-10.442 81.825-3.4343 7.5207-0.0576 15.26 0.0367 23.009 0.31722 8.6592-3.5175 20.162-0.64707 29.516 0.33918 4.9184 0.51856 10.696-1.0686 14.9 0.25254 1.6888 0.53078 3.2358 3.4008 2.7779 5.3033-1.4478 6.0165-0.94473 11.979 0.50507 17.425 0.49462 1.8581-0.0996 5.2494-1.7678 5.5558-14.161-0.38956-28.354 0.24174-42.173-3.0933-7.6159-0.10111-15.063-0.37839-22.477-0.6842-26.57 3.0703-54.164 0.86019-82.074 4.2826-8.4144 1.0318-13.894 2.751-21.466 2.0203-2.0243-0.19533-3.4144-4.5895-3.283-6.8185 2.2655-13.104-9.9294-19.866 0.0179-26.177z" stroke="#000" stroke-linecap="round" stroke-width=".88542" fill="#d40000"/>
      <path id="path6490" stroke-linejoin="round" d="m421.99 497.28c-31.534 24.701-19.101 57.316-19.445 87.631 11.69-5.1077 23.076-7.181 34.093-5.5558-8.5755-27.676-26.35-61.397-13.132-74.751" stroke="#000" stroke-linecap="round" stroke-width=".88542" fill="#d40000"/>
      <path id="path6492" stroke-linejoin="round" d="m444.97 513.45c7.2075 34.731 14.42 69.46 11.112 110.11 12.566-7.015 24.639-10.817 35.86-9.0914-14.18-51.414-31.798-77.896-48.487-111.12" stroke="#000" stroke-linecap="round" stroke-width=".88542" fill="#d40000"/>
      <path id="path6488" stroke-linejoin="round" d="m418.2 488.7c-3.3253 3.8249 2.4432 9.9154 3.0305 14.9 0.58721 4.9844-3.2112 11.601 0.50508 14.9 5.0657-1.5866 20.665 1.9177 23.739 0.75762 4.3861-3.4474 2.0062-11.45 1.5152-16.668-0.49096-5.2177-0.01-11.352-4.0406-14.142-4.238 0.0785-23.231-0.62368-24.749 0.25254z" stroke="#000" stroke-linecap="round" stroke-width=".88542" fill="#d40000"/>
      <path id="path6494" d="m290.49 757.24c26.822 3.7302 54.127 5.9954 81.195 4.5398 9.2989-0.50008 18.21-4.5351 27.524-4.5398 10.709-0.005 20.946 5.4192 31.652 5.1883 34.994-0.75489 83.021-34.791 109.6-13.32 0 0 15.999 8.2116 19.267 15.565 5.1517 11.592 3.8979 26.721-2.7524 37.615-4.2831 7.016-13.099 11.312-21.331 13.619-25.287 7.0864-52.759-1.9584-79.131-1.2971-22.756 0.57063-45.368 3.8888-68.122 4.5397-23.156 0.66248-46.343-1.3627-69.498-0.64853-12.184 0.37582-25.344 7.2931-36.469 2.5941-4.4794-1.892-7.8122-6.5236-8.9452-11.025-3.9874-15.841-11.934-47.218 2.5623-56.073 4.155-2.538 9.5518 2.5615 14.45 3.2427z" fill="#ccc"/>
      <path id="path6500" fill="#0000ad" d="m587.86 262.72s-2.9165-14.089-4.6428-21.071c-1.5112-6.112-5.0327-11.918-5-18.214 0.027-5.2-0.70923-13.554 4.2857-15 4.2924-1.2428 7.3339 5.3424 10 8.9286 2.3514 3.1629 5 10.714 5 10.714s5.564-5.2982 7.8572-8.9286c2.6136-4.1377-1.0409-7.0763 6.0714-13.929 6.2309-7.4205 11.402-12.807 19.643-6.0714 6.0602 4.5498 13.451 8.7458 16.429 15.714 2.0582 4.8168 2.8596 11.326 0 15.714-7.7339 11.869-14.393 24.405-19.643 34.643-2.1633 4.2187-12.5 6.7857-12.5 6.7857"/>
      <path id="path6502" d="m649.19 221.06c-16.104 17.282-30.177 40.251-50.656 45.281l16.81 5.66s10.337-2.5626 12.5-6.7812c5.25-10.238 11.922-22.787 19.656-34.656 1.74-2.6704 2.1168-6.1185 1.6875-9.5z"/>
      <path id="path6507" fill="#ccc" d="m622.5 274.51c-7.1701-7.5906-17.704-11.386-27.5-15-4.3372-1.6001-8.9486-2.8167-13.571-2.8571-3.1518-0.0276-7.0017-0.38644-9.2857 1.7857-4.3519 4.1388-4.8542 11.521-4.2857 17.5 0.29749 3.1288 0.91498 7.679 3.9286 8.5714 9.8905 2.9288 18.56 6.9487 29.643 7.8571 0 0 16.939 3.7028 24.286 2.8571 2.5938-0.29856 3.2398-4.5321 3.2143-7.1428-0.0489-5.0054-2.9913-9.9325-6.4286-13.571z"/>
      <path id="path6514" fill="#ccc" d="m399.29 288.79c-19.225 1.6827-39.591-4.0859-57.857 2.1429-5.8157 1.9832-13.004 4.9029-15 10.714-2.985 8.6924 2.0307 19.321 7.8571 26.429 17.758 21.663 74.286 39.286 74.286 39.286s56.785-19.649 67.857-44.286c4.6378-10.32 2.4929-25.094-5-33.571-5.8916-6.6654-16.838-6.5501-25.714-7.1429-15.589-1.041-30.864 5.0663-46.429 6.4286z"/>
      <path id="path6516" transform="matrix(1.0808 0 0 1 -35.152 0)" fill="#ffd5d5" d="m435 267.72c0 30.178-15.83 54.643-35.357 54.643s-35.357-24.464-35.357-54.643c0-30.178 15.83-54.643 35.357-54.643s35.357 24.464 35.357 54.643z"/>
      <path id="path6518" d="m360.71 239.15s-6.3564 20.238-6.7857 30.714c-0.54113 13.205 1.5435 26.631 5.3571 39.286 7.8202 25.949 30.269 46.595 35.357 73.214 1.8599 9.7306-2.1429 29.643-2.1429 29.643s33.479-38.115 44.286-60.714c5.1574-10.786 8.6764-22.703 9.2857-34.643 1.3336-26.133-12.5-77.5-12.5-77.5l-5 1.7857s4.3023 12.789 3.5714 19.286c-2.3188 20.613-9.7978 12.739-26.786 24.643-3.3206 2.3267-8.5198 2.5345-12.143 0.71429-16.67-8.3749-22.152 3.2307-28.571-14.286-3.7141-10.135-3.9286-32.143-3.9286-32.143z" fill="#e6e6e6"/>
      <path id="path6520" d="m362.5 306.29s0.0691-39.156 34.643-42.5c34.142-3.3023 35.323 30.014 45 34.643-48.042-19.62-69.46-5.4195-79.643 7.8571z" fill="#f9f9f9"/>
      <path id="path6524" stroke-linejoin="round" d="m381.79 249.68c-4.0467 0.48764-8.2959 1.6799-10.893 4.8214-1.4752 1.7845-2.955 4.4389-2.1429 6.6071 0.6087 1.6252 2.7417 2.4684 4.4643 2.6786 3.8535 0.47019 8.055-0.43132 11.25-1.25 2.6297-0.67383 5.2359-2.5613 6.4286-5 0.94147-1.925 1.3035-4.7278 0-6.4286-1.9498-2.5442-5.9247-1.8121-9.1072-1.4286z" stroke="#000" stroke-linecap="round" stroke-width="1.3281" fill="#fff"/>
      <path id="path6528" stroke-linejoin="round" d="m412.14 249.86c3.6352-0.31033 8.017-1.1737 10.893 1.0714 3.7466 2.9249 3.3554 7.0881 0.17857 8.9286-1.9354 1.1212-3.8715 2.4533-6.0714 2.8571-2.29 0.42035-4.7748 0.25605-6.9643-0.53571-2.1278-0.76945-4.5534-1.8902-5.5357-3.9286-0.93168-1.9334-0.99062-4.7584 0.35714-6.4286 1.5507-1.9217 4.6825-1.7542 7.1429-1.9643z" stroke="#000" stroke-linecap="round" stroke-width="1.3281" fill="#fff"/>
      <path id="path6530" style="block-progression:tb;color:#000000;text-transform:none;text-indent:0" d="m383.62 254.62c-2.8432-0.27252-4.847 1.3013-6.4515 2.6113a1.229 1.229 0 1 0 1.5617 1.8945c1.5812-1.291 2.7905-2.2528 4.6594-2.0737a1.229 1.229 0 1 0 0.23041 -2.4321z"/>
      <path id="path6532" style="block-progression:tb;color:#000000;text-transform:none;text-indent:0" d="m413.23 252.97a1.0989 1.0989 0 1 0 0.22771 2.186c1.3184-0.14774 2.6178-0.0183 3.9394 0.45542a1.0931 1.0931 0 1 0 0.72866 -2.0494c-1.6278-0.58354-3.2647-0.77483-4.8957-0.59204z"/>
      <path id="path6542" d="m391.96 248.26s-4.6576 10.406-3.75 15.714c0.74024 4.329 3.2863 8.97 7.1428 11.071 1.9862 1.0823 4.8551 1.1785 6.7857 0 4.1128-2.5106 6.239-8.0527 6.6071-12.857 0.21571-2.8152-1.4829-5.4779-2.6786-8.0357-1.3922-2.978-5.1786-8.3929-5.1786-8.3929" fill="#ff8080"/>
      <path id="path6546" fill="#00a2ff" d="m356.79 214.15s-6.5936-23.236-5.5357-35c2.0768-23.094 16.632-36.812 38.036-43.036 14.317-3.3975 35.045-5.3924 41.25 4.2857 4.2205 3.7298 7.1738 8.7786 9.8214 13.75 2.6181 4.9158 6.0319 12.203-1.6071 11.607-5.7318-0.447-6.3701 3.2805-12.857 2.6786 1.9048 0.23809 1.4653 0.46374 2.8571 1.7857 2.6521 2.519-1.5987 11.769-1.4286 17.679 0.2611 9.0708 3.75 26.964 3.75 26.964"/>
      <path id="path6548" fill="#0000ad" d="m427.84 158.06c-4.5826-2.2099-9.4148 0.11904-8.75 5 0.58944 4.3274 4.6043 5.1706 8.25 5.4375 5.1132 0.37432 6.1411-3.1606 11.406-2.75 1.755 0.13687 2.9243-0.14783 3.6562-0.71875-5.7734-1.8633-10.812-5.1602-14.562-6.9688zm-73 6.0312c-1.8648 4.4958-3.0942 9.5082-3.5938 15.062-1.0579 11.764 5.5312 35 5.5312 35l47.254-1.0848c-17.929-7.7267-43.938-22.734-49.192-48.978z"/>
      <path id="path6553" d="m265 568.06s-13.612 13.763-22.156 17.875c-0.15719 0.0756-0.31335 0.12259-0.46875 0.1875-0.0669 0.42992-0.1268 0.85969-0.21875 1.25-1.6389 6.9564-5.8313 13.348-10.719 18.562-10.567 11.274-28.813 13.756-38.594 25.719-18.723 22.9-28.08 53.058-33.562 82.125-2.9128 15.444-2.9452 31.873 0.71875 47.156 3.0286 12.633 14.374 22.31 17.156 35 2.1421 9.7708-0.71875 30-0.71875 30s33.783-4.9738 50.719-5.7188c29.87-1.3139 58.702 6.5195 88.562 5 16.975-0.86382 50-10 50-10s-13.228-32.708-15.719-50c-3.7013-25.692 5.619-52.226 1.4375-77.844-4.8042-29.432-10.975-61.348-30-84.312-11.437-13.805-35.531-12.897-46.438-27.125-0.23099-0.30133-0.44019-0.65521-0.65625-1l-9.34-6.88z" fill="#c69494"/>
      <path id="path6558" fill="#b37070" d="m348.88 672.69s-17.118 49.069-19.594 74.688c-1.7892 18.514 13.167 39.758 3.5625 55.688-8.9075 14.774-47.219 21.188-47.219 21.188 9.9666 0.91379 19.971 1.4839 30.094 0.96875 16.975-0.86382 50-10 50-10s-13.228-32.708-15.719-50c-3.7013-25.692 5.619-52.226 1.4375-77.844-0.79083-4.8449-1.6464-9.759-2.5625-14.688zm-189.41 40.06c-0.0655 0.34206-0.12304 0.68947-0.1875 1.0312-2.9128 15.444-2.9452 31.873 0.71875 47.156 3.0286 12.633 14.374 22.31 17.156 35 2.1421 9.7708-0.71875 30-0.71875 30s33.783-4.9738 50.719-5.7188c9.8619-0.43379 19.602 0.13663 29.312 1.0312-26.074-1.7832-44.065-6.6272-50.75-31.031-4.469-16.315-19.983-27.511-28.562-42.156-6.6544-11.359-17.688-35.312-17.688-35.312z"/>
      <path id="path6563" fill="#c69494" d="m218.93 547.36s-25.67-7.1699-35.714-15.357c-4.8382-3.9435-10.793-9.1159-10.714-15.357 0.19755-15.666 17.128-26.44 27.857-37.857 5.8453-6.2203 11.716-13.261 19.643-16.429 5.2064-2.0803 16.786-1.0714 16.786-1.0714s-8.4963 10.449-10 16.786c-1.929 8.1288-0.15152 16.873 1.7857 25 2.2147 9.291 11.071 26.429 11.071 26.429"/>
      <path id="path6567" fill="#b37070" d="m190.03 488.69c-8.8067 8.1755-17.391 16.84-17.531 27.969-0.0787 6.2413 5.8805 11.4 10.719 15.344 7.6815 6.261 24.292 11.868 31.781 14.188-3.4359-10.369-26.644-31.332-24.969-57.5z"/>
      <path id="path6498" fill="#0000ad" d="m232.14 523.79s-11.033 10.668-15 17.143c-6.8822 8.8371-3.1414 15.219 2.1428 23.571l10.72 16.43s5.456 8.562 12.857 5c8.54-4.11 22.14-17.85 22.14-17.85l10.714 7.8571c7.0191-5 6.9486-10.17 5.7143-15-3.5627-13.939-2.5201-24.355-3.5714-36.429"/>
      <path id="path6496" fill="#ccc" d="m226.43 495.22c6.0277-1.3395 13.22-2.0049 19.286-0.71428 5.1245 1.0903 9.1955 6.056 14.286 7.8571 10.386 3.675 22.993 3.9066 32.143 8.5714 2.9926 1.5256 4.1227 6.4962 4.2857 10 0.31322 6.7343 0.23727 15.557-2.8571 20.714-1.9056 3.176-8.3417 5.1697-12.143 4.2857-6.437-1.497-11.799-9.5716-18.571-11.429-7.9894-2.1906-17.775 1.4759-25.714-0.71429-5.8701-1.6193-11.474-6.322-15.714-10.714-2.4259-2.5125-4.0703-6.5534-4.2857-10-0.26078-4.1724 0.94455-9.1791 2.8571-12.857 1.1826-2.2743 3.8849-4.4347 6.4286-5z"/>
      <path id="path6509" d="m220.91 535.88c-1.4792 1.7933-2.8171 3.5398-3.75 5.0625-6.8822 8.8371-3.1592 15.21 2.125 23.562l10.72 16.44s5.4426 8.562 12.844 5c6.9159-3.3284 16.791-12.634 20.438-16.188 0 0-15.086 0.33259-21.125-3.4688-10.465-6.587-21.25-30.406-21.25-30.406z"/>
      <path id="path6544" fill="#ccc" d="m432.86 209.68c-7.8984-4.1636-17.86 0.23472-26.786 0-11.321-0.29772-22.616-2.329-33.929-1.7857-8.8373 0.4244-19.071-1.2425-26.25 3.9286-2.9808 2.1471-3.9382 6.3046-5 9.8214-1.9399 6.425-4.198 13.556-2.3214 20 1.3724 4.7127 4.8164 9.3992 9.2857 11.429 6.0199 2.7334 13.214-0.48325 19.821-0.71429 10.535-0.36839 21.076-0.60943 31.607-1.0714 7.7419-0.33962 15.495-0.57035 23.214-1.25 5.8543-0.51544 12.825 1.4185 17.5-2.1428 2.6115-1.9895 3.3098-5.8538 3.75-9.1072 0.72368-5.3483-0.0576-11.022-1.9643-16.071-1.8607-4.9271-4.2695-10.58-8.9286-13.036z"/>
      <path id="path6570" d="m198.38 626.41c-2.0237 1.5507-3.9025 3.2579-5.5312 5.25-18.723 22.9-28.08 53.058-33.562 82.125-0.54233 2.8755-1.0064 5.7887-1.3438 8.7188 12.086 12.416 24.187 24.819 42.781 31.656 12.773-26.414 24.792-52.602 46.781-81.781 0 0-2.9023-6.4702-5.3438-8.9375-6.5808-6.6504-16.766-8.648-23.938-14.656-7.6417-6.4018-19.844-22.375-19.844-22.375z" fill="#f00"/>
      <path id="path6575" d="m333.22 731.19c-19.866 0.4323-38.203 7.7896-56.062 17.25 8.5269 17.047 14.384 41.343 16.25 76.469 0.0208 0.001 0.0417-0.001 0.0625 0 1.2833 0.0871 2.5574 0.15296 3.8438 0.21875 0.77872 0.0411 1.5642 0.0919 2.3438 0.125 3.1536 0.13373 6.2977 0.18195 9.4688 0.15625 2.1914-0.0178 4.392-0.0755 6.5938-0.1875 16.975-0.86382 50-10 50-10s-13.228-32.708-15.719-50c-0.22984-1.5954-0.42673-3.1798-0.5625-4.7812-0.00088-0.0104 0.00087-0.0209 0-0.0312-0.0683-0.80929-0.10999-1.6268-0.15625-2.4375-0.004-0.0732 0.004-0.14554 0-0.21875-0.0211-0.38477-0.0461-0.77117-0.0625-1.1562-0.0408-0.937-0.0781-1.8739-0.0937-2.8125-0.003-0.21878 0.002-0.43738 0-0.65625-0.009-0.80975-0.008-1.6267 0-2.4375 0.0159-1.3885 0.0356-2.765 0.0937-4.1562 0.007-0.15561 0.0243-0.31311 0.0312-0.46875 0.0285-0.66648 0.0572-1.333 0.0937-2 0.0248-0.43705 0.0659-0.87526 0.0937-1.3125 0.0659-1.0639 0.13678-2.1226 0.21875-3.1875 0.17247-2.2405 0.37507-4.4755 0.59375-6.7188 0.009-0.0938 0.0221-0.18746 0.0312-0.28125-5.827-1.0696-11.5-1.496-17.062-1.375z" fill="#00f"/>
      <path id="path6583" d="m335.31 731.16c-0.69884-0.002-1.3984 0.0161-2.0938 0.0312-0.4279 0.009-0.85476 0.0468-1.2812 0.0625-1.2539 5.8669-2.1995 11.399-2.6562 16.125-1.7892 18.514 13.167 39.758 3.5625 55.688-6.3989 10.613-27.919 16.888-39.562 19.594 0.0437 0.74265 0.085 1.4662 0.125 2.2188 1.1447 0.0784 2.2912 0.15554 3.4375 0.21875 0.15664 0.008 0.31179 0.0232 0.46875 0.0312 1.0133 0.0539 2.0477 0.11611 3.0625 0.15625 0.0835 0.003 0.16656-0.003 0.25 0 1.2531 0.0481 2.4943 0.0694 3.75 0.0937 1.2551 0.0204 2.5211 0.0354 3.7812 0.0312 0.32242-0.0006 0.64613 0.002 0.96875 0 0.25036-0.002 0.49942 0.003 0.75 0 0.84612-0.0104 1.6831-0.0389 2.5312-0.0625 1.0993-0.0307 2.2116-0.069 3.3125-0.125 16.975-0.86382 50-10 50-10s-13.228-32.708-15.719-50c-0.11419-0.79261-0.22232-1.5808-0.3125-2.375-0.001-0.0102 0.001-0.021 0-0.0312-0.0899-0.79412-0.18256-1.5794-0.25-2.375-0.00088-0.0104 0.00087-0.0209 0-0.0312-0.0742-0.87901-0.1074-1.7756-0.15625-2.6562-0.0211-0.38477-0.0461-0.77117-0.0625-1.1562-0.0349-0.80235-0.0774-1.6027-0.0937-2.4062-0.003-0.13536 0.002-0.27082 0-0.40625-0.003-0.21878 0.002-0.43738 0-0.65625-0.0236-2.1904 0.007-4.3963 0.0937-6.5938 0.004-0.10397 0.0234-0.20796 0.0312-0.3125 0.002-0.0521-0.002-0.1042 0-0.15625 0.004-0.0831-0.004-0.16687 0-0.25 0.0161-0.36461 0.0439-0.72898 0.0625-1.0938 0.0106-0.21878 0.0193-0.43739 0.0312-0.65625 0.01-0.17674 0.0179-0.35427 0.0312-0.53125 0.0151-0.261 0.0463-0.52018 0.0625-0.78125 0.0659-1.0639 0.13678-2.1226 0.21875-3.1875 0.15724-2.0427 0.33436-4.08 0.53125-6.125 0.0191-0.19842 0.0432-0.39521 0.0625-0.59375 0.009-0.0938 0.0221-0.18746 0.0312-0.28125-5.0986-0.93594-10.077-1.3911-14.969-1.4062z" fill="#0000d6"/>
      <path id="path6588" d="m159.47 712.78c-0.0631 0.33232-0.12493 0.66825-0.1875 1-0.18205 0.96524-0.34065 1.9338-0.5 2.9062-0.12549 0.76583-0.26381 1.5428-0.375 2.3125-0.12018 0.83191-0.24051 1.6642-0.34375 2.5-0.0417 0.33392-0.0865 0.66561-0.125 1 3.8951 4.0013 7.7913 7.9997 11.906 11.812-5.3136-10.583-10.351-21.478-10.375-21.531z" fill="#b90000"/>
    </g>
  </g>
  <metadata>
    <rdf:RDF>
      <cc:Work>
        <dc:format>image/svg+xml</dc:format>
        <dc:type rdf:resource="http://purl.org/dc/dcmitype/StillImage"/>
        <cc:license rdf:resource="http://creativecommons.org/licenses/publicdomain/"/>
        <dc:publisher>
          <cc:Agent rdf:about="http://openclipart.org/">
            <dc:title>Openclipart</dc:title>
          </cc:Agent>
        </dc:publisher>
        <dc:title>Grandpa Frost by Rones</dc:title>
        <dc:date>2010-12-08T21:00:26</dc:date>
        <dc:description>Christmas, New Year, Santa Claus, clip art, clipart, russian, snow, winter, &#x414;&#x435;&#x434; &#x41C;&#x43E;&#x440;&#x43E;&#x437;, &#x41D;&#x43E;&#x432;&#x44B;&#x439; &#x433;&#x43E;&#x434;, &#x437;&#x438;&#x43C;&#x430;, &#x43C;&#x43E;&#x440;&#x43E;&#x437;, </dc:description>
        <dc:source>http://openclipart.org/detail/99943/grandpa-frost-by-rones-by-rones</dc:source>
        <dc:creator>
          <cc:Agent>
            <dc:title>rones</dc:title>
          </cc:Agent>
        </dc:creator>
        <dc:subject>
          <rdf:Bag>
            <rdf:li>Christmas</rdf:li>
            <rdf:li>New Year</rdf:li>
            <rdf:li>Santa Claus</rdf:li>
            <rdf:li>clip art</rdf:li>
            <rdf:li>clipart</rdf:li>
            <rdf:li>russian</rdf:li>
            <rdf:li>snow</rdf:li>
            <rdf:li>winter</rdf:li>
            <rdf:li>&#x414;&#x435;&#x434; &#x41C;&#x43E;&#x440;&#x43E;&#x437;</rdf:li>
            <rdf:li>&#x41D;&#x43E;&#x432;&#x44B;&#x439; &#x433;&#x43E;&#x434;</rdf:li>
            <rdf:li>&#x437;&#x438;&#x43C;&#x430;</rdf:li>
            <rdf:li>&#x43C;&#x43E;&#x440;&#x43E;&#x437;</rdf:li>
          </rdf:Bag>
        </dc:subject>
      </cc:Work>
      <cc:License rdf:about="http://creativecommons.org/licenses/publicdomain/">
        <cc:permits rdf:resource="http://creativecommons.org/ns#Reproduction"/>
        <cc:permits rdf:resource="http://creativecommons.org/ns#Distribution"/>
        <cc:permits rdf:resource="http://creativecommons.org/ns#DerivativeWorks"/>
      </cc:License>
    </rdf:RDF>
  </metadata>
</svg>
