<?xml version="1.0" encoding="utf-8"?>
<!-- Generator: Adobe Illustrator 16.0.0, SVG Export Plug-In . SVG Version: 6.00 Build 0)  -->
<!DOCTYPE svg PUBLIC "-//W3C//DTD SVG 1.1//EN" "http://www.w3.org/Graphics/SVG/1.1/DTD/svg11.dtd">
<svg version="1.1" id="Layer_1" xmlns="http://www.w3.org/2000/svg" xmlns:xlink="http://www.w3.org/1999/xlink" x="0px" y="0px"
	 width="338px" height="307.292px" viewBox="0 0 338 307.292" enable-background="new 0 0 338 307.292" xml:space="preserve">
<g>
	<polygon fill-rule="evenodd" clip-rule="evenodd" fill="#FFCC00" points="9.87,250.497 15.298,256.983 16.754,262.279 
		17.549,274.591 27.081,291.008 22.977,293.258 8.016,294.847 8.414,303.32 260.354,302.525 277.831,299.481 293.585,294.052 
		308.809,284.125 317.283,276.047 325.623,262.279 330.257,246.26 329.861,230.505 326.021,217.928 322.579,212.896 
		323.373,205.616 326.418,203.365 332.111,202.967 333.302,201.114 331.052,198.334 324.962,194.891 318.078,198.069 
		312.65,201.776 305.765,200.319 295.438,198.334 288.157,205.218 271.343,226.667 271.343,241.228 276.771,246.26 283.654,248.51 
		290.541,248.908 296.231,246.26 300.867,241.228 302.72,234.742 300.469,230.505 296.63,228.254 294.38,227.857 294.38,234.742 
		291.996,239.376 287.098,239.772 283.654,236.727 282.065,233.55 281.67,229.71 284.715,222.165 290.541,215.28 298.086,211.44 
		303.912,210.25 309.207,211.44 315.695,216.737 319.534,224.812 321.917,232.888 320.725,244.274 317.68,255.394 313.046,263.868 
		306.559,271.149 297.689,279.092 285.907,284.125 270.283,288.359 259.958,292.862 71.035,294.052 81.362,282.931 84.009,278.034 
		86.79,266.515 85.201,255.792 80.964,242.817 72.624,240.169 63.091,240.169 71.035,246.921 76.065,256.983 76.065,267.309 
		71.035,276.842 61.502,283.33 51.573,285.315 42.438,284.125 35.156,281.873 30.126,276.842 27.081,266.913 28.272,258.439 
		34.363,253.144 45.483,251.954 48.528,246.656 45.086,244.274 36.613,244.274 30.126,246.921 23.639,251.555 19.8,247.716 
		13.709,247.451 9.87,250.497 9.87,250.497 	"/>
	<polygon fill-rule="evenodd" clip-rule="evenodd" fill="#FF9900" points="321.519,198.599 326.816,199.128 322.446,201.114 
		320.063,204.689 319.534,208.661 320.99,211.838 324.3,215.942 323.24,205.484 328.007,202.835 332.244,202.306 332.772,200.849 
		329.729,197.672 325.228,195.819 321.519,198.599 321.519,198.599 	"/>
	<polygon fill-rule="evenodd" clip-rule="evenodd" fill="#FF9900" points="322.05,213.294 325.228,223.223 326.551,231.564 
		326.152,241.361 325.228,250.497 323.107,257.381 317.416,268.634 312.252,275.519 304.574,282.403 292.129,289.552 
		279.154,294.847 268.827,297.76 254.661,299.216 244.865,300.142 223.021,300.408 202.5,300.541 223.021,302.525 265.52,302.525 
		281.271,298.819 292.658,294.98 305.235,285.581 317.68,274.856 327.345,257.381 330.522,244.274 329.861,229.843 327.874,222.296 
		322.05,213.294 322.05,213.294 	"/>
	<polygon fill-rule="evenodd" clip-rule="evenodd" fill="#FF9900" points="8.678,301.599 13.445,299.216 237.716,300.408 
		8.678,301.599 8.678,301.599 	"/>
	<polygon fill-rule="evenodd" clip-rule="evenodd" fill="#FF9900" points="16.092,250.627 19.932,254.204 22.05,258.439 
		21.255,251.954 17.549,250.365 16.092,250.627 16.092,250.627 	"/>
	<polygon fill-rule="evenodd" clip-rule="evenodd" fill="#FF9900" points="46.41,249.833 41.379,248.776 37.805,248.51 
		33.833,249.57 28.802,252.748 24.433,258.175 23.109,264.793 24.168,271.282 26.816,276.18 30.391,280.947 35.687,284.918 
		42.174,286.639 52.633,287.698 62.694,284.653 49.322,285.581 38.069,282.799 30.655,276.975 27.875,268.104 27.346,260.558 
		34.098,253.409 46.146,253.409 46.41,249.833 46.41,249.833 	"/>
	<polygon fill-rule="evenodd" clip-rule="evenodd" fill="#FF9900" points="72.094,241.494 80.17,251.688 81.494,260.028 
		81.229,267.575 80.7,274.194 78.846,279.887 75.139,284.653 68.122,289.022 60.841,291.669 47.999,291.669 34.627,290.346 
		28.537,286.639 22.05,283.064 31.185,294.052 69.711,294.318 80.17,284.653 85.201,274.194 86.26,259.764 82.553,248.245 
		76.728,240.963 72.094,241.494 72.094,241.494 	"/>
	<polygon fill-rule="evenodd" clip-rule="evenodd" fill="#FFCC00" points="101.22,293.258 90.894,278.828 90.231,266.913 
		91.291,258.439 100.956,242.817 109.693,239.772 171.652,240.833 183.037,255.394 185.024,262.676 190.718,246.921 
		195.352,240.169 262.604,240.434 272.138,250.76 276.375,260.822 275.977,279.491 267.9,290.213 254.528,294.847 234.273,292.2 
		233.215,279.887 233.877,273.399 238.906,266.515 249.233,266.12 244.204,273.399 244.204,280.284 246.188,284.125 
		250.689,286.109 259.561,284.52 265.254,278.034 267.238,269.56 257.972,266.515 261.811,260.028 261.414,256.188 258.37,251.159 
		250.689,249.702 228.58,249.304 213.356,249.702 205.279,250.497 199.852,253.144 197.203,257.645 196.807,261.881 
		203.029,267.309 198.396,269.56 194.557,271.547 196.146,275.651 199.456,281.079 204.089,284.125 211.768,284.918 217.461,282.27 
		220.506,279.092 220.506,274.194 219.05,271.149 211.369,267.309 214.018,264.662 218.255,264.265 223.55,266.515 227.785,270.752 
		228.978,274.988 229.374,280.681 225.934,287.963 219.445,292.862 205.279,293.656 184.229,291.802 161.723,294.052 
		147.954,289.552 143.718,280.681 142.526,274.591 144.909,268.37 147.557,264.265 152.059,262.676 155.897,263.074 
		155.897,267.309 153.25,271.81 152.456,276.047 155.236,281.079 159.34,282.536 163.974,282.931 169.666,280.681 170.858,275.651 
		167.416,269.958 172.049,263.868 171.255,256.586 166.225,252.349 156.295,249.702 137.23,249.304 116.18,249.304 110.487,251.159 
		106.251,255.792 107.84,261.485 110.487,265.325 108.899,268.37 103.603,269.164 100.161,266.515 100.956,273.797 102.411,278.828 
		109.296,284.52 115.783,285.315 122.668,284.52 127.301,280.681 129.552,275.651 130.743,269.164 126.904,264.926 129.154,262.676 
		132.994,262.279 135.642,263.868 138.422,267.707 138.687,274.591 137.627,280.681 133.789,288.757 128.096,292.862 
		101.22,293.258 101.22,293.258 	"/>
	<polygon fill-rule="evenodd" clip-rule="evenodd" fill="#FF9900" points="218.917,266.25 224.212,269.958 226.066,273.93 
		226.595,277.769 225.535,282.005 222.623,286.109 218.386,289.817 212.694,290.611 207.134,291.141 200.117,289.287 
		190.718,284.388 195.086,291.141 205.809,293.789 224.212,292.2 225.801,285.844 228.58,279.358 228.846,274.724 228.316,270.752 
		223.946,267.309 218.917,266.25 218.917,266.25 	"/>
	<polygon fill-rule="evenodd" clip-rule="evenodd" fill="#FF9900" points="96.719,264.793 96.189,269.958 96.983,275.651 
		99.764,281.211 102.411,284.125 106.383,286.903 112.341,288.228 119.226,287.433 122.138,285.182 111.547,285.182 
		101.882,278.298 97.778,260.293 96.719,264.793 96.719,264.793 	"/>
	<polygon fill-rule="evenodd" clip-rule="evenodd" fill="#FF9900" points="107.442,265.457 103.736,261.617 101.882,256.321 
		103.471,251.422 107.708,248.245 114.989,247.187 160.002,246.656 109.958,249.304 106.648,250.893 105.06,253.541 104.53,256.321 
		104.53,260.293 107.442,265.457 107.442,265.457 	"/>
	<polygon fill-rule="evenodd" clip-rule="evenodd" fill="#FF9900" points="155.897,264.793 152.721,272.871 152.721,277.239 
		155.103,280.681 159.472,282.536 165.298,283.33 171.785,280.681 166.092,284.918 158.678,284.918 151.926,281.741 
		149.014,275.386 149.543,270.223 152.456,266.515 155.897,264.793 155.897,264.793 	"/>
	<polygon fill-rule="evenodd" clip-rule="evenodd" fill="#FF9900" points="91.423,274.194 94.071,280.152 98.175,285.182 
		103.206,288.757 108.237,290.611 115.519,291.141 120.814,290.611 127.566,288.492 132.597,284.125 135.377,278.564 
		135.907,272.076 134.848,267.309 132.994,262.942 136.436,265.987 138.555,271.017 138.29,278.828 133.391,289.022 
		124.124,293.789 100.293,293.524 94.071,284.125 90.894,277.769 89.305,267.045 91.423,274.194 91.423,274.194 	"/>
	<polygon fill-rule="evenodd" clip-rule="evenodd" fill="#FF9900" points="293.585,238.845 286.436,242.023 281.803,240.7 
		278.625,236.461 278.625,231.299 281.537,222.296 285.774,214.75 292.525,208.529 298.219,205.351 295.703,208.792 
		301.396,207.204 305.896,207.204 310.268,209.057 314.768,212.368 318.211,217.663 318.739,222.827 312.914,213.957 
		307.485,210.912 301.396,210.912 296.763,211.838 290.937,214.22 286.436,219.251 282.597,225.473 281.537,231.829 
		282.065,237.788 286.701,239.376 293.585,238.845 293.585,238.845 	"/>
	<polygon fill-rule="evenodd" clip-rule="evenodd" fill="#FF9900" points="174.697,249.304 177.346,252.748 178.141,256.321 
		178.669,260.822 176.815,267.045 180.523,262.147 181.186,269.958 179.992,275.915 177.875,280.681 174.169,285.182 
		171.52,286.375 167.151,287.698 160.002,288.228 166.622,289.022 172.58,287.698 177.346,284.653 180.523,280.152 182.509,271.547 
		182.773,265.457 180.391,256.851 178.404,251.954 174.697,249.304 174.697,249.304 	"/>
	<polygon fill-rule="evenodd" clip-rule="evenodd" fill="#FF9900" points="198.263,265.721 193.763,262.942 192.702,259.764 
		194.291,254.468 197.734,250.627 201.44,247.981 207.663,246.393 224.478,246.393 205.809,247.716 200.912,249.57 197.203,253.011 
		194.82,257.381 194.557,260.822 198.263,265.721 198.263,265.721 	"/>
	<polygon fill-rule="evenodd" clip-rule="evenodd" fill="#FF9900" points="264.459,246.921 269.226,254.204 269.754,258.97 
		267.637,263.868 264.193,265.721 267.371,265.721 271.077,263.47 271.608,268.37 271.343,273.399 269.488,279.092 267.9,283.33 
		264.193,287.168 259.826,290.346 265.782,287.698 270.02,283.064 272.402,275.121 273.197,265.192 272.402,258.705 
		269.754,251.954 264.459,246.921 264.459,246.921 	"/>
	<polygon fill-rule="evenodd" clip-rule="evenodd" fill="#FF9900" points="244.334,266.781 240.894,271.017 239.834,276.445 
		240.364,279.623 242.482,283.33 245.66,285.844 250.559,288.228 242.482,280.417 241.157,274.194 243.54,269.958 244.334,266.781 
		244.334,266.781 	"/>
	<polygon fill-rule="evenodd" clip-rule="evenodd" fill="#FF0000" points="34.23,108.175 33.171,115.06 24.698,120.752 
		16.887,120.355 11.062,116.119 10.002,110.823 12.65,100.761 22.579,91.229 34.759,85.404 48.396,84.345 65.342,86.463 
		82.156,89.641 99.102,95.996 114.327,106.057 131.803,123.93 150.205,145.113 168.607,163.118 186.613,179.402 204.485,188.405 
		222.49,194.23 241.951,193.701 257.706,186.286 266.709,180.461 270.947,168.281 272.535,151.997 278.359,145.642 285.642,142.995 
		293.057,142.464 303.118,147.231 306.824,155.175 305.765,163.515 300.998,169.341 295.174,170.929 297.292,183.638 
		295.703,196.878 286.701,206.807 272.005,226.401 269.887,241.228 238.776,240.169 63.753,240.169 54.751,220.576 54.221,198.467 
		58.458,166.692 61.106,144.583 59.517,125.518 51.044,114 42.703,108.175 34.23,108.175 34.23,108.175 	"/>
	<polygon fill-rule="evenodd" clip-rule="evenodd" fill="#B20000" points="73.815,90.7 95.395,98.114 109.031,106.587 
		125.448,123.93 137.627,141.935 153.382,161.529 165.562,173.047 181.318,184.698 201.837,193.169 224.079,197.407 
		242.482,196.347 254.133,193.169 263.532,184.168 245.129,191.052 221.433,192.641 194.025,183.109 172.843,167.221 144.38,136.64 
		119.093,110.823 103.338,98.114 80.037,88.052 55.81,83.286 43.232,84.875 64.283,87.522 73.815,90.7 73.815,90.7 	"/>
	<polygon fill-rule="evenodd" clip-rule="evenodd" fill="#B20000" points="301.131,153.85 297.159,149.614 292.262,148.555 
		287.496,151.07 284.449,156.233 283.787,163.25 287.496,169.473 290.674,178.475 291.202,186.022 288.421,194.758 282.198,205.218 
		276.242,212.896 268.827,222.694 264.988,229.446 264.326,234.61 259.561,236.86 61.106,235.667 64.416,240.169 271.343,241.228 
		270.947,232.358 273.064,224.679 285.907,206.94 295.969,198.73 297.159,186.948 296.231,173.047 288.952,163.78 288.687,158.484 
		292.924,152.792 297.689,152.792 301.131,153.85 301.131,153.85 	"/>
	<polygon fill-rule="evenodd" clip-rule="evenodd" fill="#B20000" points="29.861,105.395 25.095,105.395 23.374,108.837 
		23.506,110.293 26.154,109.896 24.83,111.617 23.242,112.809 18.873,113.471 16.225,110.558 16.754,106.322 19.137,102.615 
		23.242,99.305 29.729,96.79 36.613,96.127 44.821,97.054 52.897,100.629 59.252,107.381 63.753,114.927 66.798,123.93 
		67.46,130.947 67.99,147.628 60.708,184.83 59.12,194.363 58.723,210.381 61.502,223.753 65.077,232.49 70.505,239.507 
		63.621,239.639 55.016,210.646 54.221,185.625 60.046,156.498 60.708,132.403 56.472,118.899 49.853,112.147 43.365,108.573 
		35.156,106.587 29.861,103.012 29.861,105.395 29.861,105.395 	"/>
	<polygon fill-rule="evenodd" clip-rule="evenodd" fill="#B20000" points="296.63,153.321 292.924,154.91 290.674,158.749 
		290.408,162.72 292.924,166.295 296.763,167.752 300.734,167.752 297.026,170.665 291.731,168.81 287.759,164.971 287.098,160.734 
		290.408,154.777 292.791,152.659 296.63,153.321 296.63,153.321 	"/>
	<polygon fill-rule="evenodd" clip-rule="evenodd" fill="#B20000" points="297.292,160.205 296.102,157.821 294.646,157.558 
		293.188,159.41 292.791,161.926 293.981,163.647 296.763,164.575 299.675,163.912 300.998,161.926 301.792,158.353 
		299.278,162.323 296.497,162.587 298.881,160.999 299.409,159.147 297.292,160.205 297.292,160.205 	"/>
	<polygon fill-rule="evenodd" clip-rule="evenodd" fill="#00CCFF" points="165.827,162.456 195.219,130.285 233.744,154.248 
		235.333,166.295 213.224,191.45 188.996,181.653 165.827,162.456 165.827,162.456 	"/>
	<polygon fill-rule="evenodd" clip-rule="evenodd" fill="#A6F2FF" points="178.802,171.193 210.179,137.831 219.975,145.113 
		203.69,163.118 218.386,171.193 220.639,183.374 214.414,190.523 211.238,178.741 198.528,170.532 189.26,180.33 178.802,171.193 
		178.802,171.193 	"/>
	<polygon fill-rule="evenodd" clip-rule="evenodd" fill="#33D6FF" points="179.859,171.458 183.17,168.281 192.702,174.769 
		189.393,179.269 179.859,171.458 179.859,171.458 	"/>
	<polygon fill-rule="evenodd" clip-rule="evenodd" fill="#0099FF" points="168.078,158.749 170.063,157.821 182.773,167.221 
		179.597,170.797 188.73,179.004 193.364,175.033 207.001,183.506 203.559,187.742 186.348,179.667 170.46,164.971 166.225,161.793 
		168.078,158.749 168.078,158.749 	"/>
	<polygon fill-rule="evenodd" clip-rule="evenodd" fill="#FF5900" points="215.474,191.846 230.434,193.833 246.454,192.112 
		262.209,184.698 260.884,160.47 234.804,160.073 235.067,166.031 215.474,191.846 215.474,191.846 	"/>
	<polygon fill-rule="evenodd" clip-rule="evenodd" fill="#B20000" points="220.506,188.14 229.374,190.125 237.849,189.861 
		257.442,186.286 246.718,191.713 226.462,194.363 215.872,192.641 220.506,188.14 220.506,188.14 	"/>
	<polygon fill-rule="evenodd" clip-rule="evenodd" fill="#B20000" points="219.18,192.375 230.566,179.402 241.157,169.473 
		239.438,161.397 234.804,160.47 234.935,166.295 213.621,191.185 219.18,192.375 219.18,192.375 	"/>
	<polygon fill-rule="evenodd" clip-rule="evenodd" fill="#FF9B66" points="226.86,176.092 247.115,190.788 259.164,185.227 
		232.817,168.281 226.86,176.092 226.86,176.092 	"/>
	<polygon fill-rule="evenodd" clip-rule="evenodd" fill="#D85858" points="245.66,187.875 256.117,184.168 261.148,185.227 
		248.307,190.788 245.66,187.875 245.66,187.875 	"/>
	<polygon fill-rule="evenodd" clip-rule="evenodd" fill="#00B200" points="187.407,31.256 184.759,50.585 177.609,71.768 
		167.019,90.038 167.681,95.996 176.948,101.82 175.888,109.367 158.281,129.358 158.943,135.845 163.18,137.831 172.049,139.155 
		170.991,146.701 161.591,156.233 166.754,162.059 194.557,129.623 208.59,138.493 209.517,133.991 201.706,120.885 211.9,115.324 
		215.739,116.251 217.724,121.547 216.797,130.947 228.58,120.488 236.656,115.589 241.29,115.324 242.615,120.885 232.817,123.533 
		222.357,132.006 227.918,130.947 238.378,130.02 237.317,143.126 235.333,143.126 226.199,140.744 215.739,142.464 
		233.479,152.923 234.406,160.073 260.487,160.47 262.209,182.976 268.033,178.078 270.416,171.193 272.271,156.233 
		276.903,146.701 286.965,142.067 282.464,139.552 273.33,138.493 270.947,135.58 275.314,125.783 273.594,120.223 268.694,116.913 
		255.986,114.266 254.661,110.029 256.911,100.894 253.338,95.598 245.793,94.407 233.744,90.038 234.141,84.212 239.305,76.004 
		239.305,70.84 222.357,60.646 204.353,45.554 195.483,29.932 191.643,27.549 187.407,31.256 187.407,31.256 	"/>
	<polygon fill-rule="evenodd" clip-rule="evenodd" fill="#006600" points="261.811,164.707 266.048,164.707 266.975,177.019 
		262.342,183.903 261.811,164.707 261.811,164.707 	"/>
	<polygon fill-rule="evenodd" clip-rule="evenodd" fill="#D85858" points="233.877,168.281 226.728,175.695 230.038,179.269 
		237.583,172.12 233.877,168.281 233.877,168.281 	"/>
	<polygon fill-rule="evenodd" clip-rule="evenodd" fill="#006600" points="226.329,148.555 230.699,146.966 237.188,147.363 
		238.776,152.261 243.011,150.011 248.307,147.628 253.867,146.701 254.133,149.614 243.938,154.248 250.822,154.248 
		255.455,159.676 234.539,160.073 232.685,152.792 226.329,148.555 226.329,148.555 	"/>
	<polygon fill-rule="evenodd" clip-rule="evenodd" fill="#006600" points="189.129,91.892 194.557,97.716 218.784,107.381 
		224.079,101.688 219.578,99.702 215.341,103.144 210.444,101.026 189.129,91.892 189.129,91.892 	"/>
	<polygon fill-rule="evenodd" clip-rule="evenodd" fill="#006600" points="257.177,154.248 260.354,156.233 262.342,156.233 
		264.592,155.438 266.048,154.115 266.577,151.6 266.709,149.349 265.915,146.701 263.003,144.715 264.725,149.217 262.076,152.526 
		257.177,154.248 257.177,154.248 	"/>
	<polygon fill-rule="evenodd" clip-rule="evenodd" fill="#006600" points="182.509,125.121 184.495,126.18 187.142,126.445 
		189.658,125.121 191.643,122.474 191.775,119.296 191.113,117.178 188.069,114.927 186.48,114.927 189.129,118.899 
		188.069,123.136 185.553,124.459 182.509,125.121 182.509,125.121 	"/>
	<polygon fill-rule="evenodd" clip-rule="evenodd" fill="#006600" points="234.804,110.162 238.511,111.75 241.026,110.691 
		243.011,108.042 243.011,105.527 241.688,102.482 239.172,100.894 241.026,105.13 237.45,110.029 234.804,110.162 234.804,110.162 
			"/>
	<polygon fill-rule="evenodd" clip-rule="evenodd" fill="#006600" points="204.618,82.888 208.855,86.86 213.885,86.86 
		217.461,84.875 219.05,80.902 218.386,76.666 216.136,73.356 211.502,72.032 214.813,78.917 212.562,82.888 209.252,83.815 
		204.618,82.888 204.618,82.888 	"/>
	<polygon fill-rule="evenodd" clip-rule="evenodd" fill="#006600" points="192.968,67.134 198.528,68.855 203.029,67.531 
		205.279,63.957 205.279,60.382 203.295,56.41 200.779,54.424 198.13,54.424 201.44,61.706 197.867,65.943 192.968,67.134 
		192.968,67.134 	"/>
	<polygon fill-rule="evenodd" clip-rule="evenodd" fill="#A84FA8" points="259.826,144.053 256.648,144.715 254.661,149.349 
		255.06,152.526 257.31,154.512 261.811,154.512 264.459,151.6 263.532,146.966 262.209,145.51 259.826,144.053 259.826,144.053 	
		"/>
	<polygon fill-rule="evenodd" clip-rule="evenodd" fill="#CC0066" points="233.083,100.497 230.168,105.13 230.832,108.042 
		233.479,110.029 236.656,110.426 239.305,108.705 240.232,103.542 237.716,100.497 233.083,100.497 233.083,100.497 	"/>
	<polygon fill-rule="evenodd" clip-rule="evenodd" fill="#FF9900" points="188.598,89.375 194.82,95.333 203.029,98.643 
		214.813,102.218 217.724,102.218 220.639,97.981 208.855,94.407 190.585,83.815 188.598,89.375 188.598,89.375 	"/>
	<polygon fill-rule="evenodd" clip-rule="evenodd" fill="#FF5900" points="180.523,116.648 179.198,119.826 179.198,122.474 
		181.186,124.459 184.362,125.386 187.407,124.063 189.26,120.885 188.996,117.31 185.42,114.927 180.523,116.648 180.523,116.648 	
		"/>
	<polygon fill-rule="evenodd" clip-rule="evenodd" fill="#00FF00" points="207.663,71.503 204.353,74.018 203.295,77.593 
		204.618,82.624 209.252,84.477 213.885,81.962 214.15,77.99 212.827,73.356 207.663,71.503 207.663,71.503 	"/>
	<polygon fill-rule="evenodd" clip-rule="evenodd" fill="#FFFF00" points="194.557,53.762 190.319,57.072 189.923,62.897 
		192.307,66.869 195.483,67.531 199.719,66.604 202.367,61.706 200.381,56.145 194.557,53.762 194.557,53.762 	"/>
	<polygon fill-rule="evenodd" clip-rule="evenodd" fill="#00CCFF" points="211.502,139.552 207.663,129.623 202.103,120.885 
		210.179,115.986 216.136,115.589 217.724,123.533 216.136,131.609 227.257,121.547 235.994,116.648 241.29,114.927 
		242.217,120.488 233.083,124.063 225.271,130.02 222.357,132.271 231.494,129.623 237.716,129.623 237.317,143.789 
		225.934,141.141 216.136,142.464 211.502,139.552 211.502,139.552 	"/>
	<polygon fill-rule="evenodd" clip-rule="evenodd" fill="#A6F2FF" points="224.873,127.372 232.421,118.899 241.555,115.324 
		242.217,120.488 234.141,123.136 224.873,127.372 224.873,127.372 	"/>
	<polygon fill-rule="evenodd" clip-rule="evenodd" fill="#A6F2FF" points="235.994,130.285 220.639,141.141 230.434,141.406 
		236.656,143.392 237.981,140.744 237.981,130.285 235.994,130.285 235.994,130.285 	"/>
	<polygon fill-rule="evenodd" clip-rule="evenodd" fill="#A6F2FF" points="202.631,121.547 208.855,128.696 210.84,135.183 
		216.4,116.648 212.827,115.986 202.631,121.547 202.631,121.547 	"/>
	<polygon fill-rule="evenodd" clip-rule="evenodd" fill="#0099FF" points="204.353,186.948 210.84,179.004 233.479,154.248 
		235.067,165.632 214.15,191.846 204.353,186.948 204.353,186.948 	"/>
	<polygon fill-rule="evenodd" clip-rule="evenodd" fill="#00CCFF" points="210.574,177.813 214.414,191.185 220.639,183.638 
		217.724,171.193 210.574,177.813 210.574,177.813 	"/>
	<polygon fill-rule="evenodd" clip-rule="evenodd" fill="#A6F2FF" points="172.976,154.512 187.671,164.309 195.88,157.558 
		178.271,147.628 172.976,154.512 172.976,154.512 	"/>
	<polygon fill-rule="evenodd" clip-rule="evenodd" fill="#FFFF00" points="138.29,130.682 136.436,112.015 175.888,108.705 
		158.943,130.682 158.943,135.58 172.049,140.744 171.652,146.304 162.252,156.233 138.29,130.682 138.29,130.682 	"/>
	<polygon fill-rule="evenodd" clip-rule="evenodd" fill="#FFCC00" points="137.627,119.826 154.044,139.552 162.915,147.628 
		163.444,157.16 148.749,142.067 136.701,128.034 137.627,119.826 137.627,119.826 	"/>
	<polygon fill-rule="evenodd" clip-rule="evenodd" fill="#FF0000" points="101.75,97.319 96.852,66.207 177.213,49.791 
		181.186,61.706 167.416,91.361 168.078,95.996 170.063,98.643 163.444,105.527 164.503,86.86 159.869,75.74 150.072,80.638 
		158.545,96.657 151.793,92.023 143.188,91.361 136.436,103.806 145.571,102.88 157.619,110.691 137.363,111.75 136.436,128.696 
		126.639,115.589 112.473,104.204 101.75,97.319 101.75,97.319 	"/>
	<polygon fill-rule="evenodd" clip-rule="evenodd" fill="#B20000" points="102.014,89.375 109.561,93.083 116.71,97.583 
		126.242,105.13 131.538,112.015 131.803,107.116 139.613,108.042 140.275,111.353 136.04,111.75 136.701,130.02 124.918,114.663 
		112.473,103.144 102.014,97.319 102.014,89.375 102.014,89.375 	"/>
	<polygon fill-rule="evenodd" clip-rule="evenodd" fill="#00FF00" points="74.345,87.787 109.296,26.623 151.793,55.086 
		97.513,66.207 101.353,97.319 81.759,88.184 74.345,87.787 74.345,87.787 	"/>
	<polygon fill-rule="evenodd" clip-rule="evenodd" fill="#00B200" points="84.804,83.55 94.203,86.463 96.454,87.787 95.792,82.888 
		98.837,81.962 102.411,97.583 83.48,89.375 77.522,86.198 84.804,83.55 84.804,83.55 	"/>
	<polygon fill-rule="evenodd" clip-rule="evenodd" fill="#00B200" points="81.494,76.004 74.345,87.787 79.508,87.787 99.102,81.3 
		98.175,72.694 81.494,76.004 81.494,76.004 	"/>
	<polygon fill-rule="evenodd" clip-rule="evenodd" fill="#006600" points="77.257,80.902 87.981,84.212 79.508,87.522 
		73.947,87.522 77.257,80.902 77.257,80.902 	"/>
	<polygon fill-rule="evenodd" clip-rule="evenodd" fill="#CC8CCC" points="49.853,84.477 26.948,34.434 75.007,6.366 90.364,9.014 
		103.736,34.434 74.609,87.787 49.853,84.477 49.853,84.477 	"/>
	<polygon fill-rule="evenodd" clip-rule="evenodd" fill="#A84FA8" points="49.19,80.638 58.325,79.579 66.136,79.579 72.358,80.638 
		93.542,47.275 96.454,49.526 73.947,87.522 51.044,85.139 49.19,80.638 49.19,80.638 	"/>
	<polygon fill-rule="evenodd" clip-rule="evenodd" fill="#FF9900" points="160.267,76.004 149.808,79.579 157.883,95.598 
		150.47,91.759 142.262,91.759 136.04,104.204 146.498,103.144 156.295,109.764 175.625,109.102 176.552,101.158 170.991,97.583 
		163.841,105.13 164.768,87.522 160.267,76.004 160.267,76.004 	"/>
	<polygon fill-rule="evenodd" clip-rule="evenodd" fill="#FFCC00" points="151.793,79.976 158.943,93.083 158.943,77.99 
		151.793,79.976 151.793,79.976 	"/>
	<polygon fill-rule="evenodd" clip-rule="evenodd" fill="#FFCC00" points="151.132,93.745 143.85,102.218 138.025,102.482 
		144.512,93.745 151.132,93.745 151.132,93.745 	"/>
	<polygon fill-rule="evenodd" clip-rule="evenodd" fill="#00B200" points="138.025,45.289 131.141,33.242 130.479,26.623 
		139.349,23.974 144.909,24.637 143.85,35.095 142.923,41.715 156.03,35.095 161.855,36.154 158.545,47.275 147.822,46.878 
		142.526,49.129 138.025,45.289 138.025,45.289 	"/>
	<polygon fill-rule="evenodd" clip-rule="evenodd" fill="#00FF00" points="155.368,36.419 146.498,45.951 156.957,45.554 
		160.929,36.154 155.368,36.419 155.368,36.419 	"/>
	<polygon fill-rule="evenodd" clip-rule="evenodd" fill="#00FF00" points="141.6,25.96 136.04,37.743 133.126,28.21 141.6,25.96 
		141.6,25.96 	"/>
	<polygon fill-rule="evenodd" clip-rule="evenodd" fill="#FF9900" points="161.591,137.831 162.915,155.175 168.078,150.011 
		171.652,142.464 171.652,139.155 161.591,137.831 161.591,137.831 	"/>
	<polygon fill-rule="evenodd" clip-rule="evenodd" fill="#FF9900" points="159.869,111.088 160.532,126.445 170.063,116.913 
		174.963,109.367 159.869,111.088 159.869,111.088 	"/>
	<polygon fill-rule="evenodd" clip-rule="evenodd" fill="#00B200" points="91.291,56.41 135.112,44.627 126.242,38.405 
		98.44,44.627 91.291,56.41 91.291,56.41 	"/>
	<polygon fill-rule="evenodd" clip-rule="evenodd" fill="#A84FA8" points="87.716,33.242 92.614,44.892 98.175,45.951 
		105.986,33.771 87.716,33.242 87.716,33.242 	"/>
	<polygon fill-rule="evenodd" clip-rule="evenodd" fill="#7F007F" points="75.668,7.028 89.04,33.506 104.397,34.831 90.894,8.617 
		75.668,7.028 75.668,7.028 	"/>
	<polygon fill-rule="evenodd" clip-rule="evenodd" fill="#E5B2E5" points="39.658,62.632 45.483,74.018 94.203,45.554 
		89.305,33.771 71.3,43.039 59.252,16.428 45.88,25.298 58.325,50.585 39.658,62.632 39.658,62.632 	"/>
	<polygon fill-rule="evenodd" clip-rule="evenodd" fill="#FF8282" points="132.729,59.058 137.627,102.218 143.585,91.361 
		149.808,91.759 154.971,93.745 159.605,98.643 154.707,87.522 149.411,80.638 153.647,77.99 150.47,54.159 132.729,59.058 
		132.729,59.058 	"/>
	<polygon fill-rule="evenodd" clip-rule="evenodd" fill="#FF0000" points="191.246,29.535 182.509,40.656 181.186,29.27 
		170.063,22.386 179.464,17.487 179.859,5.705 190.585,11.529 201.706,11.265 203.029,12.854 199.058,21.062 205.941,29.27 
		202.631,30.197 195.88,30.594 191.246,29.535 191.246,29.535 	"/>
	<polygon fill-rule="evenodd" clip-rule="evenodd" points="51.441,83.55 29.994,36.684 75.668,9.279 88.113,33.771 90.894,33.771 
		77.125,7.69 89.967,10.206 102.809,34.698 104.927,33.639 90.894,7.823 74.478,5.042 25.757,34.565 47.999,82.888 51.441,83.55 
		51.441,83.55 	"/>
	<polygon fill-rule="evenodd" clip-rule="evenodd" points="41.644,63.294 89.702,34.301 104.662,35.625 104,33.639 88.51,32.447 
		39.525,61.574 40.453,65.281 41.644,63.294 41.644,63.294 	"/>
	<polygon fill-rule="evenodd" clip-rule="evenodd" points="57.531,52.041 45.351,27.019 47.999,25.695 59.914,50.453 57.531,52.041 
		57.531,52.041 	"/>
	<polygon fill-rule="evenodd" clip-rule="evenodd" points="70.505,43.965 58.325,19.076 60.973,17.62 72.889,42.376 70.505,43.965 
		70.505,43.965 	"/>
	<polygon fill-rule="evenodd" clip-rule="evenodd" points="45.351,72.562 93.939,44.098 98.572,44.362 97.646,45.951 94.336,46.216 
		46.013,74.945 45.351,72.562 45.351,72.562 	"/>
	<polygon fill-rule="evenodd" clip-rule="evenodd" points="73.815,86.331 62.827,62.897 65.342,61.574 76.198,84.08 73.815,86.331 
		73.815,86.331 	"/>
	<polygon fill-rule="evenodd" clip-rule="evenodd" points="82.95,70.973 75.801,56.145 78.316,54.689 85.068,68.59 82.95,70.973 
		82.95,70.973 	"/>
	<polygon fill-rule="evenodd" clip-rule="evenodd" points="75.668,87.125 109.826,28.608 149.675,55.086 153.647,54.424 
		109.031,25.431 72.624,87.522 75.668,87.125 75.668,87.125 	"/>
	<polygon fill-rule="evenodd" clip-rule="evenodd" points="136.171,43.171 130.611,33.109 129.552,25.695 137.098,23.974 
		139.613,22.65 144.512,23.312 146.233,26.357 144.248,39.861 155.103,34.036 161.855,33.771 164.106,37.478 159.208,49.261 
		142.262,48.466 145.704,45.951 157.883,46.613 161.326,36.684 153.912,37.081 144.115,43.171 139.613,47.143 142.659,38.272 
		143.585,25.431 137.363,25.828 132.2,27.946 134.98,37.346 139.216,45.024 137.76,46.48 136.171,43.171 136.171,43.171 	"/>
	<polygon fill-rule="evenodd" clip-rule="evenodd" points="103.736,98.511 98.572,68.325 176.815,51.379 179.597,66.472 
		180.92,60.382 178.669,47.54 95.13,65.281 100.426,96.393 103.736,98.511 103.736,98.511 	"/>
	<polygon fill-rule="evenodd" clip-rule="evenodd" points="136.833,103.012 131.273,59.985 134.053,59.058 139.613,99.702 
		136.833,103.012 136.833,103.012 	"/>
	<polygon fill-rule="evenodd" clip-rule="evenodd" points="152.059,77.195 148.484,56.675 151.529,55.484 154.574,77.46 
		152.059,77.195 152.059,77.195 	"/>
	<polygon fill-rule="evenodd" clip-rule="evenodd" points="151.793,80.77 159.737,77.46 163.047,88.714 163.18,107.116 
		170.46,100.364 173.771,97.849 169.799,98.114 164.9,103.012 165.298,84.477 160.134,73.489 146.631,80.108 157.354,95.068 
		160.929,96.922 151.793,80.77 151.793,80.77 	"/>
	<polygon fill-rule="evenodd" clip-rule="evenodd" points="159.737,95.201 151.529,91.097 141.997,90.303 134.053,105.924 
		143.85,104.601 156.692,110.691 159.869,110.691 147.292,102.747 138.422,102.218 144.115,92.686 151.264,93.215 157.222,96.922 
		160.134,101.556 162.252,109.764 169.799,100.629 164.106,104.071 159.737,95.201 159.737,95.201 	"/>
	<polygon fill-rule="evenodd" clip-rule="evenodd" points="99.102,46.216 126.772,38.935 124.653,37.346 99.499,44.098 
		99.102,46.216 99.102,46.216 	"/>
	<polygon fill-rule="evenodd" clip-rule="evenodd" points="93.012,54.821 135.245,44.098 136.833,45.686 92.482,57.205 
		93.012,54.821 93.012,54.821 	"/>
	<polygon fill-rule="evenodd" clip-rule="evenodd" points="81.362,75.872 97.646,71.635 98.175,74.018 79.64,78.387 81.362,75.872 
		81.362,75.872 	"/>
	<polygon fill-rule="evenodd" clip-rule="evenodd" points="75.536,86.595 99.764,80.77 99.764,82.888 80.567,88.052 75.536,86.595 
		75.536,86.595 	"/>
	<polygon fill-rule="evenodd" clip-rule="evenodd" points="93.277,46.48 95.792,51.512 96.983,49.261 94.601,45.024 93.277,46.48 
		93.277,46.48 	"/>
	<polygon fill-rule="evenodd" clip-rule="evenodd" points="190.585,29.138 182.773,38.538 182.376,27.284 173.771,23.577 
		181.448,18.149 181.847,7.425 190.319,12.721 201.308,11.794 197.469,21.194 203.559,28.873 194.025,29.535 194.953,33.639 
		203.295,32.183 206.868,28.873 200.514,20.665 203.559,13.515 201.44,9.94 190.054,10.735 180.523,4.645 178.404,5.836 
		178.141,17.222 169.005,22.783 169.005,24.637 179.065,29.402 178.802,40.523 181.714,41.979 186.084,39.2 190.585,29.138 
		190.585,29.138 	"/>
	<polygon fill-rule="evenodd" clip-rule="evenodd" points="190.718,29.535 187.54,45.554 184.229,61.176 173.903,81.962 
		168.342,91.229 168.078,95.068 170.196,96.922 173.903,97.054 177.477,97.849 180.258,101.82 179.331,108.97 173.241,115.986 
		167.945,122.076 161.855,127.901 160.134,131.211 160.929,134.918 163.444,136.375 168.342,137.037 173.505,135.713 
		175.625,135.845 175.094,140.346 173.505,145.245 169.799,151.6 165.959,155.307 161.061,156.896 159.472,152.659 163.18,151.732 
		167.681,148.687 169.799,144.715 169.269,141.538 163.974,140.346 160.002,138.89 157.354,135.183 157.222,130.285 
		159.737,125.651 164.9,121.017 171.387,112.941 173.903,106.984 173.241,103.144 170.196,100.1 166.489,96.127 165.827,92.421 
		166.754,88.449 171.785,80.77 179.992,60.646 183.303,47.408 184.626,37.743 190.718,29.535 190.718,29.535 	"/>
	<polygon fill-rule="evenodd" clip-rule="evenodd" points="193.364,30.064 198.396,40.523 205.678,49.658 216.666,59.323 
		226.728,65.148 235.729,69.517 237.849,71.9 237.849,75.872 235.994,79.182 233.479,82.094 231.757,84.477 231.757,88.449 
		233.215,92.023 236.789,94.274 242.084,96.393 246.321,97.054 250.955,96.393 254.265,98.511 255.323,102.482 253.471,107.911 
		253.471,113.206 255.854,116.516 259.826,117.708 264.459,117.972 267.504,117.972 271.21,119.826 272.932,122.871 
		272.932,126.313 271.476,130.814 269.621,134.256 269.358,137.963 272.005,140.744 276.638,140.346 282.464,141.273 
		286.171,142.729 289.879,142.2 286.436,139.817 283.126,138.228 279.154,137.037 275.844,137.566 273.594,136.375 273.33,134.918 
		274.521,130.549 276.109,126.048 276.109,121.679 274.255,117.972 270.02,115.324 265.649,114.663 261.678,114.397 258.37,113.471 
		256.781,112.279 255.854,109.499 256.516,106.455 257.972,104.071 257.972,99.702 254.927,95.465 250.027,92.95 244.467,92.156 
		240.232,90.832 237.716,88.714 236.26,85.934 236.523,83.286 238.511,80.77 240.628,78.255 240.894,74.945 240.894,71.371 
		238.378,68.193 233.877,65.281 223.815,60.25 212.163,51.115 205.014,42.509 198.661,31.917 193.364,30.064 193.364,30.064 	"/>
	<polygon fill-rule="evenodd" clip-rule="evenodd" points="195.219,56.278 193.101,56.939 191.643,59.455 191.643,62.765 
		193.101,65.148 195.88,65.81 199.586,64.221 200.381,61.309 201.308,57.337 202.631,60.646 202.235,63.427 200.779,66.207 
		199.058,67.531 196.409,68.325 193.63,68.061 191.512,66.869 189.658,65.016 189.129,62.632 188.996,59.588 190.187,56.808 
		191.643,54.954 194.158,53.895 196.013,53.63 198.263,54.424 198.792,57.734 197.203,56.278 195.219,56.278 195.219,56.278 	"/>
	<polygon fill-rule="evenodd" clip-rule="evenodd" points="196.674,56.013 198.661,57.337 199.852,59.19 199.984,60.912 
		199.852,63.03 198.396,65.413 201.573,63.957 202.367,60.25 201.97,57.866 200.912,56.41 199.719,55.086 198.396,54.027 
		196.146,53.498 192.702,54.027 191.379,56.41 195.747,55.086 196.674,56.013 196.674,56.013 	"/>
	<polygon fill-rule="evenodd" clip-rule="evenodd" points="208.457,73.489 206.473,74.151 205.014,76.666 205.014,79.976 
		206.473,82.359 209.252,83.021 212.958,81.432 213.621,78.52 214.547,74.68 216.003,77.858 215.474,80.638 214.15,83.418 
		212.429,84.742 209.78,85.537 207.001,85.271 204.751,84.08 203.029,82.227 202.5,79.844 202.367,76.798 203.559,74.018 
		205.014,72.165 207.53,71.105 209.384,70.84 211.502,71.635 212.163,74.945 210.444,73.489 208.457,73.489 208.457,73.489 	"/>
	<polygon fill-rule="evenodd" clip-rule="evenodd" points="210.046,73.224 212.033,74.68 213.224,76.401 213.356,78.123 
		213.224,80.241 211.635,82.624 214.945,81.167 215.739,77.46 215.341,75.078 214.283,73.489 213.091,72.297 211.768,71.238 
		209.517,70.576 206.074,71.238 204.618,73.489 209.119,72.297 210.046,73.224 210.046,73.224 	"/>
	<polygon fill-rule="evenodd" clip-rule="evenodd" points="185.686,116.516 183.965,116.251 181.847,117.575 180.654,119.958 
		180.787,122.208 182.642,123.797 185.951,124.063 187.54,122.208 189.79,119.693 189.658,122.606 188.202,124.459 186.084,126.048 
		184.229,126.313 182.112,125.916 180.125,124.592 178.935,122.871 178.271,120.885 178.802,118.899 179.859,116.648 
		181.714,115.06 183.568,114.266 185.818,114.397 187.407,114.927 188.73,116.251 187.804,119.032 187.274,117.31 185.686,116.516 
		185.686,116.516 	"/>
	<polygon fill-rule="evenodd" clip-rule="evenodd" points="187.009,116.913 187.937,118.634 188.069,120.488 187.54,121.812 
		186.613,123.268 184.495,124.459 187.54,124.592 189.658,122.208 190.187,120.223 189.923,118.767 189.525,117.31 188.996,116.119 
		187.54,114.795 184.759,113.868 182.773,115.06 186.613,115.854 187.009,116.913 187.009,116.913 	"/>
	<polygon fill-rule="evenodd" clip-rule="evenodd" points="237.055,101.423 235.2,101.158 233.083,102.615 231.89,104.998 
		232.022,107.249 233.877,108.837 237.317,108.97 238.906,107.249 241.026,104.601 240.894,107.513 239.438,109.499 
		237.317,110.955 235.466,111.353 233.346,110.823 231.361,109.631 230.168,107.911 229.507,105.792 230.038,103.938 
		231.096,101.556 233.083,99.967 234.935,99.172 237.055,99.305 238.644,99.834 239.967,101.291 239.172,103.938 238.511,102.218 
		237.055,101.423 237.055,101.423 	"/>
	<polygon fill-rule="evenodd" clip-rule="evenodd" points="238.245,101.82 239.172,103.674 239.305,105.395 238.776,106.719 
		237.849,108.175 235.861,109.499 238.776,109.631 240.894,107.116 241.423,105.263 241.157,103.674 240.894,102.35 
		240.232,101.026 238.776,99.702 235.994,98.908 234.141,100.1 237.849,100.894 238.245,101.82 238.245,101.82 	"/>
	<polygon fill-rule="evenodd" clip-rule="evenodd" points="259.031,145.51 257.177,146.172 255.986,148.29 255.986,150.938 
		257.177,152.923 259.561,153.453 262.737,152.129 263.267,149.879 264.061,146.568 265.254,149.217 264.855,151.6 263.665,153.85 
		262.209,154.91 260.089,155.571 257.706,155.307 255.854,154.38 254.397,152.792 253.867,150.938 253.736,148.422 254.794,146.039 
		255.986,144.451 258.104,143.656 259.693,143.392 261.547,144.053 262.076,146.833 260.62,145.51 259.031,145.51 259.031,145.51 	
		"/>
	<polygon fill-rule="evenodd" clip-rule="evenodd" points="260.222,145.377 261.943,146.568 262.87,148.025 263.003,149.481 
		262.87,151.203 261.678,153.188 264.326,151.997 265.121,148.819 264.725,146.966 263.798,145.642 262.87,144.583 261.678,143.656 
		259.826,143.259 256.911,143.656 255.721,145.642 259.428,144.583 260.222,145.377 260.222,145.377 	"/>
	<polygon fill-rule="evenodd" clip-rule="evenodd" points="187.54,89.773 191.512,93.745 198.263,97.452 205.412,100.761 
		213.224,103.277 217.856,103.409 222.623,97.849 209.517,93.612 197.867,87.39 190.054,82.094 188.465,86.198 189.923,88.846 
		191.246,85.006 195.747,88.581 201.706,91.892 206.603,94.274 211.238,96.26 217.195,97.981 219.844,98.114 216.797,101.158 
		211.502,100.894 205.941,98.775 199.586,96.26 194.025,93.083 190.452,90.17 187.407,88.052 187.54,89.773 187.54,89.773 	"/>
	<polygon fill-rule="evenodd" clip-rule="evenodd" points="190.452,86.066 189.26,91.229 187.274,88.317 189.26,84.345 
		190.452,86.066 190.452,86.066 	"/>
	<polygon fill-rule="evenodd" clip-rule="evenodd" points="211.502,138.758 210.179,132.667 206.735,126.578 203.029,121.679 
		207.796,118.899 212.694,116.516 215.077,116.383 216.4,118.767 216.666,123.665 216.136,130.152 214.945,134.256 214.018,140.214 
		216.93,135.448 218.122,128.034 218.255,121.812 218.122,117.84 216.268,114.927 212.562,114.663 206.735,117.31 200.25,121.679 
		203.559,125.386 206.735,130.152 208.324,133.33 208.324,137.434 211.502,138.758 211.502,138.758 	"/>
	<polygon fill-rule="evenodd" clip-rule="evenodd" points="216.666,133.33 222.623,127.372 226.86,123.4 230.963,120.488 
		233.611,118.899 240.628,116.251 241.423,119.693 235.466,121.812 230.434,124.724 225.668,128.034 219.844,133.33 
		217.592,137.831 224.079,133.198 231.361,130.947 237.188,130.814 237.188,142.2 230.566,140.479 224.212,140.214 218.519,140.479 
		215.077,141.538 217.989,143.126 223.55,142.333 228.978,142.729 233.744,144.053 236.523,145.113 238.776,143.259 
		239.039,129.093 233.611,129.093 228.184,130.02 225.271,131.873 229.507,127.769 236.393,124.194 242.084,122.208 
		243.806,121.414 241.82,113.603 235.466,115.721 229.374,119.032 224.61,123.003 219.975,127.637 216.4,131.211 216.666,133.33 
		216.666,133.33 	"/>
	<polygon fill-rule="evenodd" clip-rule="evenodd" points="138.819,128.034 137.893,113.074 176.153,109.896 176.153,107.911 
		135.509,111.088 136.436,126.975 138.819,128.034 138.819,128.034 	"/>
	<polygon fill-rule="evenodd" clip-rule="evenodd" points="161.061,110.558 161.855,125.518 160.002,127.24 159.208,110.293 
		161.061,110.558 161.061,110.558 	"/>
	<polygon fill-rule="evenodd" clip-rule="evenodd" points="168.872,109.499 169.799,119.296 167.681,120.488 166.887,109.234 
		168.872,109.499 168.872,109.499 	"/>
	<polygon fill-rule="evenodd" clip-rule="evenodd" points="161.061,137.434 162.12,153.85 163.709,153.321 163.444,137.831 
		161.061,137.434 161.061,137.434 	"/>
	<polygon fill-rule="evenodd" clip-rule="evenodd" points="167.151,162.456 171.917,157.425 176.419,152.394 181.581,146.701 
		186.613,141.008 191.113,136.11 195.352,131.344 232.552,153.85 217.592,170.532 217.989,173.312 233.083,156.233 234.804,165.236 
		221.563,180.858 212.429,191.45 215.077,191.713 236.523,165.898 234.141,152.394 194.689,128.563 165.827,161.132 
		167.151,162.456 167.151,162.456 	"/>
	<polygon fill-rule="evenodd" clip-rule="evenodd" points="210.312,139.684 179.859,173.047 177.742,171.987 208.855,138.36 
		210.312,139.684 210.312,139.684 	"/>
	<polygon fill-rule="evenodd" clip-rule="evenodd" points="219.711,145.113 187.671,179.535 189.658,180.33 221.167,146.039 
		219.711,145.113 219.711,145.113 	"/>
	<polygon fill-rule="evenodd" clip-rule="evenodd" points="218.784,170.665 204.353,162.853 203.295,164.176 216.93,171.458 
		219.844,183.903 221.433,182.712 218.784,170.665 218.784,170.665 	"/>
	<polygon fill-rule="evenodd" clip-rule="evenodd" points="198.396,169.473 211.635,177.284 214.813,189.463 213.621,190.919 
		211.238,180.725 204.353,188.14 202.367,187.875 210.312,178.873 197.469,170.665 198.396,169.473 198.396,169.473 	"/>
	<polygon fill-rule="evenodd" clip-rule="evenodd" points="187.54,162.456 173.771,154.115 172.049,155.307 187.274,164.044 
		187.54,162.456 187.54,162.456 	"/>
	<polygon fill-rule="evenodd" clip-rule="evenodd" points="194.025,157.558 178.536,148.555 179.597,147.628 194.158,155.969 
		194.025,157.558 194.025,157.558 	"/>
	<polygon fill-rule="evenodd" clip-rule="evenodd" points="137.76,104.469 138.952,111.617 141.997,111.75 140.541,103.806 
		137.76,104.469 137.76,104.469 	"/>
	<polygon fill-rule="evenodd" clip-rule="evenodd" points="235.861,161.793 259.693,161.397 260.753,183.903 262.87,183.506 
		261.811,159.278 234.141,159.014 235.861,161.793 235.861,161.793 	"/>
	<polygon fill-rule="evenodd" clip-rule="evenodd" points="234.671,167.752 259.693,184.565 257.972,185.625 231.757,168.678 
		234.671,167.752 234.671,167.752 	"/>
	<polygon fill-rule="evenodd" clip-rule="evenodd" points="226.595,176.886 246.056,190.788 249.101,190.391 227.785,174.901 
		226.595,176.886 226.595,176.886 	"/>
	<polygon fill-rule="evenodd" clip-rule="evenodd" points="293.585,143.789 289.348,143.789 283.259,145.113 279.154,148.025 
		275.977,151.6 273.594,156.764 272.535,162.587 272.535,166.56 272.535,171.856 270.814,177.019 266.709,182.844 260.354,187.477 
		251.616,192.112 246.321,193.833 237.055,195.024 228.449,195.553 217.989,194.363 206.34,190.919 193.101,185.757 180.92,177.946 
		168.475,168.016 156.56,153.585 135.377,129.226 127.566,120.355 118.563,111.088 109.561,103.277 102.014,99.172 91.026,93.745 
		78.582,89.243 71.961,88.449 60.841,86.728 47.337,86.066 37.672,87.257 31.317,89.243 24.036,92.156 17.681,97.187 
		14.504,100.894 11.856,104.998 11.062,109.896 12.121,113.868 15.033,116.781 19.402,118.501 23.771,117.972 27.61,116.251 
		31.317,113.074 33.303,109.896 33.039,107.249 31.317,104.998 27.213,104.998 23.771,105.792 22.05,107.513 20.594,110.162 
		20.594,112.412 21.388,114.795 18.608,113.603 17.681,109.234 18.873,104.733 22.579,101.423 26.022,99.702 29.332,99.438 
		32.244,100.1 35.024,103.144 36.481,106.719 36.481,110.955 34.23,116.251 30.788,120.223 27.479,122.076 22.844,122.606 
		18.211,121.812 13.313,119.693 10.135,115.721 8.943,110.691 10.135,103.806 13.047,98.246 18.211,92.818 24.565,88.449 
		33.039,85.006 43.498,82.888 51.308,82.888 58.59,83.286 68.122,84.345 76.595,86.066 86.922,88.979 96.586,92.553 
		111.282,100.894 122.932,110.955 131.273,118.634 142.262,131.079 152.456,143.126 160.532,151.6 168.342,159.94 174.83,166.825 
		183.436,173.576 194.557,181.124 204.089,186.286 213.356,189.463 223.152,191.846 237.055,191.846 246.454,189.994 
		255.455,186.551 262.342,182.314 267.637,175.033 269.226,168.678 269.226,161.132 270.814,153.85 275.447,146.701 
		280.875,142.862 286.038,141.67 291.335,141.406 297.689,142.597 302.587,145.775 305.501,148.952 307.485,153.321 307.884,158.22 
		306.957,162.323 305.765,165.104 303.118,168.414 299.409,171.326 295.703,171.591 292.129,170.398 288.687,167.752 
		286.701,163.382 287.627,157.954 290.408,153.321 294.775,151.335 298.881,151.864 301.529,153.585 302.323,155.836 
		302.587,159.014 301.529,161.926 299.675,163.647 296.896,163.647 294.513,162.323 293.585,160.205 294.775,157.954 
		295.041,160.47 296.763,161.926 299.146,161.397 300.073,159.41 300.336,156.764 298.881,154.248 296.763,153.85 293.585,154.115 
		291.069,155.836 289.348,159.94 289.348,163.647 291.335,166.56 294.513,168.016 298.219,168.281 301.529,166.56 304.309,162.587 
		305.235,157.69 304.045,152.129 301.792,148.157 297.689,145.245 293.585,143.789 293.585,143.789 	"/>
	<polygon fill-rule="evenodd" clip-rule="evenodd" points="34.098,105.527 42.042,106.322 51.308,110.293 57.663,117.443 
		61.238,125.518 62.827,137.831 62.827,149.084 60.443,165.898 57.266,183.77 56.472,196.613 57.266,211.838 60.046,224.679 
		65.21,238.183 270.416,238.978 272.932,242.155 63.224,242.155 56.869,229.446 52.897,214.618 51.706,199.393 53.294,184.565 
		56.472,165.5 58.855,150.673 59.252,138.625 56.472,125.916 52.103,116.648 47.734,112.279 42.835,110.293 34.892,109.896 
		34.098,105.527 34.098,105.527 	"/>
	<polygon fill-rule="evenodd" clip-rule="evenodd" points="44.954,254.6 38.864,254.6 33.701,256.586 30.126,261.353 
		28.934,265.325 29.332,271.017 30.92,276.18 35.289,280.152 42.042,283.33 48.925,284.52 55.677,283.33 62.43,281.741 
		69.182,277.371 74.08,269.031 73.683,258.97 72.756,251.422 68.387,245.73 63.621,240.963 67.593,240.169 73.683,247.848 
		76.86,253.409 77.654,259.764 77.257,268.237 73.683,276.577 68.785,281.741 61.238,285.713 53.691,286.903 44.954,286.109 
		38.069,284.125 31.714,280.152 27.346,274.194 24.962,267.045 26.154,260.558 29.729,254.6 35.687,250.627 40.85,249.833 
		44.954,250.627 44.954,254.6 44.954,254.6 	"/>
	<polygon fill-rule="evenodd" clip-rule="evenodd" points="44.16,252.748 46.675,246.656 42.174,245.2 37.275,245.465 
		31.979,246.789 27.479,249.57 23.904,253.541 21.917,255.792 22.182,251.159 19.005,249.171 15.695,249.304 11.988,251.422 
		14.371,253.541 16.357,255.792 17.813,258.97 18.74,265.457 19.137,270.752 20.726,276.445 23.109,281.741 27.213,286.375 
		32.509,291.008 39.394,292.596 43.895,293.656 18.873,294.052 23.242,291.274 24.168,289.154 22.315,285.844 18.211,278.959 
		16.622,271.415 16.357,265.192 16.225,261.353 13.842,256.983 9.34,251.159 10.399,248.51 13.577,246.789 18.475,246.789 
		23.109,249.304 29.464,245.73 34.759,243.083 40.056,242.685 46.542,243.347 49.72,244.936 49.72,248.245 46.278,255.129 
		34.759,254.468 44.16,252.748 44.16,252.748 	"/>
	<polygon fill-rule="evenodd" clip-rule="evenodd" points="73.286,240.833 78.582,245.73 83.215,252.349 85.333,262.411 
		84.539,271.149 82.817,278.298 78.184,284.52 72.491,288.89 63.753,293.258 90.364,293.789 85.201,292.729 82.023,290.611 
		80.435,287.831 82.288,284.918 85.068,280.152 86.922,274.458 87.981,265.721 87.584,257.645 85.068,249.57 77.919,240.567 
		73.286,240.833 73.286,240.833 	"/>
	<polygon fill-rule="evenodd" clip-rule="evenodd" points="85.201,253.541 85.068,245.995 87.584,243.347 90.628,242.95 
		93.806,243.611 95.395,247.583 92.217,252.748 89.172,260.161 88.51,267.309 88.775,273.532 90.364,278.959 92.35,283.33 
		93.542,285.976 94.468,288.625 92.35,290.479 85.73,293.656 109.164,293.258 102.544,290.081 96.057,283.992 92.217,278.034 
		90.761,269.826 91.688,262.411 94.865,254.865 99.499,249.171 103.471,245.862 108.899,243.083 116.71,240.302 75.007,240.169 
		85.201,253.541 85.201,253.541 	"/>
	<polygon fill-rule="evenodd" clip-rule="evenodd" points="109.826,264.926 107.045,262.942 105.06,259.631 104.53,256.718 
		106.648,252.615 113.003,248.908 126.904,247.981 158.545,248.245 167.548,250.232 171.785,253.938 174.169,258.97 
		174.432,263.074 173.241,266.382 169.799,269.56 172.712,270.487 175.492,270.09 179.198,267.575 178.008,273.532 175.359,278.828 
		171.123,283.33 167.681,284.786 162.649,285.182 156.428,283.859 153.25,281.079 151.132,276.975 151.396,272.605 153.912,267.707 
		158.016,264.793 154.574,271.149 153.647,276.445 155.765,279.754 158.811,281.342 161.988,282.403 165.43,280.814 
		167.945,277.902 168.475,274.458 165.827,268.37 169.534,266.382 170.858,262.411 170.46,258.042 166.225,253.805 159.605,251.422 
		148.749,250.893 134.98,250.76 120.285,251.159 114.195,251.688 110.62,253.277 108.766,256.586 109.164,260.426 112.076,263.868 
		111.415,267.309 108.766,269.826 105.06,270.884 101.353,269.826 99.764,264 102.014,267.309 105.457,267.971 107.84,267.309 
		109.826,264.926 109.826,264.926 	"/>
	<polygon fill-rule="evenodd" clip-rule="evenodd" points="99.102,263.074 98.175,268.634 98.837,273.532 100.161,278.034 
		103.206,282.403 106.251,284.918 111.415,287.036 116.048,287.301 121.344,286.639 125.448,284.786 129.552,281.741 
		131.935,277.902 132.862,271.678 131.273,266.781 127.963,264.265 127.036,266.12 129.419,268.237 129.552,273.002 
		127.698,278.034 124.786,281.475 120.152,283.992 113.533,284.52 109.429,282.403 105.722,279.754 103.206,275.782 
		102.544,273.267 102.279,269.56 99.102,263.074 99.102,263.074 	"/>
	<polygon fill-rule="evenodd" clip-rule="evenodd" points="127.698,264.531 130.743,263.074 133.259,263.603 135.774,265.721 
		137.627,269.56 137.893,274.194 137.098,278.959 134.848,283.859 131.273,287.698 126.639,290.479 120.417,292.729 
		142.526,293.656 138.025,289.817 136.436,288.625 136.304,287.565 136.966,285.182 139.216,280.152 140.144,275.121 
		140.144,270.223 138.29,265.721 135.509,262.411 132.2,261.087 128.625,261.087 126.375,263.337 126.11,265.721 130.082,268.37 
		127.698,264.531 127.698,264.531 	"/>
	<polygon fill-rule="evenodd" clip-rule="evenodd" points="154.574,267.707 155.236,264.926 152.721,263.868 150.072,264.531 
		146.763,267.575 144.777,271.678 143.85,276.975 144.512,281.342 147.028,285.713 150.735,288.625 156.03,290.743 167.019,292.596 
		137.893,292.332 134.715,288.625 139.746,289.817 141.6,288.625 142.923,285.448 142.659,280.417 141.6,275.386 142.659,269.826 
		144.777,265.721 148.881,262.411 152.323,261.485 155.5,261.749 158.016,263.603 157.619,266.12 154.574,267.707 154.574,267.707 	
		"/>
	<polygon fill-rule="evenodd" clip-rule="evenodd" points="158.281,241.096 167.681,242.42 172.314,244.936 176.021,247.981 
		178.935,251.159 181.979,256.188 183.303,261.749 183.568,267.971 183.568,273.93 182.112,280.417 179.464,284.255 174.169,288.89 
		168.872,291.008 154.839,291.405 167.284,292.596 185.818,293.789 186.348,264.926 185.42,259.233 183.037,253.938 
		180.391,249.966 179.464,246.656 180.787,243.611 183.965,240.567 159.472,239.244 158.281,241.096 158.281,241.096 	"/>
	<polygon fill-rule="evenodd" clip-rule="evenodd" points="179.597,243.611 184.495,241.494 188.598,242.685 189.923,245.2 
		189.79,247.981 187.407,253.011 185.157,258.97 183.832,268.634 182.906,291.405 187.54,293.656 208.986,292.729 200.779,290.743 
		196.674,288.89 193.497,286.109 189.79,282.27 186.48,275.782 186.348,266.648 187.274,260.161 190.187,252.615 193.63,247.451 
		198.528,244.274 203.559,242.685 215.208,241.228 176.419,240.169 179.597,243.611 179.597,243.611 	"/>
	<polygon fill-rule="evenodd" clip-rule="evenodd" points="210.707,267.309 214.813,269.56 217.724,271.81 219.18,274.856 
		219.18,277.902 216.797,281.475 212.958,283.594 207.001,283.859 201.042,280.417 196.409,274.856 195.747,272.076 
		198.925,271.149 203.029,268.634 203.823,266.382 198.925,262.014 198.396,259.631 199.456,256.321 202.103,253.673 
		206.735,251.159 214.945,251.159 225.271,250.893 235.729,250.893 245.262,250.76 251.354,251.422 256.117,252.084 
		259.031,253.938 261.414,257.116 261.414,254.204 257.972,250.497 250.426,248.377 234.273,247.981 209.252,248.245 
		204.22,249.171 199.456,251.688 196.674,255.792 195.219,259.896 195.219,262.014 197.072,264 199.586,265.721 201.175,267.045 
		199.058,268.501 195.747,269.295 192.307,268.634 192.968,273.665 194.82,277.371 197.602,280.417 201.042,283.859 
		205.809,286.109 211.105,286.639 216.797,285.713 220.506,283.859 222.623,280.152 222.756,275.782 221.433,271.678 
		217.989,268.37 214.813,267.707 210.707,267.309 210.707,267.309 	"/>
	<polygon fill-rule="evenodd" clip-rule="evenodd" points="215.872,268.898 213.621,266.781 216.4,265.721 219.18,265.721 
		223.284,267.707 226.462,270.752 228.051,273.532 228.316,277.636 227.39,281.741 225.535,284.52 223.284,287.565 220.506,289.552 
		216.666,291.141 212.958,291.669 206.34,292.596 224.212,292.068 226.462,288.359 228.978,283.594 230.168,277.636 
		229.905,273.532 228.58,270.223 226.199,267.575 221.696,264.531 217.328,263.868 213.885,264.265 211.635,265.721 
		210.707,267.707 212.163,269.164 215.872,268.898 215.872,268.898 	"/>
	<polygon fill-rule="evenodd" clip-rule="evenodd" points="247.645,267.045 243.938,266.781 241.423,267.575 237.981,269.826 
		235.729,273.267 234.804,277.371 234.273,280.814 235.067,285.448 237.849,288.625 242.746,291.405 251.616,293.656 
		236.393,292.332 220.769,292.068 228.449,282.005 227.521,287.168 228.051,289.287 229.64,290.213 231.494,288.359 
		231.096,285.182 230.832,281.342 231.757,275.386 233.611,271.149 236.393,267.971 239.834,265.854 243.276,264.926 
		246.983,264.793 250.426,265.721 250.16,268.634 247.91,270.09 245.793,274.458 245.262,277.902 245.262,280.152 246.718,282.931 
		249.632,284.786 254,284.918 257.972,283.594 262.737,279.887 265.52,275.121 266.181,269.295 268.431,267.309 268.694,270.752 
		268.033,274.591 266.048,278.298 263.532,282.005 260.884,284.786 256.117,286.771 252.015,287.831 246.983,286.109 
		244.467,282.931 242.746,278.298 242.615,274.458 244.865,269.826 247.645,267.045 247.645,267.045 	"/>
	<polygon fill-rule="evenodd" clip-rule="evenodd" points="259.958,255.66 260.62,259.101 259.295,263.074 256.781,266.781 
		258.633,268.37 262.737,269.56 266.842,269.826 268.563,267.707 264.855,267.045 261.678,267.045 259.958,266.12 263.532,262.147 
		264.592,258.705 263.931,255.527 262.342,253.541 259.031,250.232 254,248.776 247.248,248.245 256.516,252.748 259.958,255.66 
		259.958,255.66 	"/>
	<polygon fill-rule="evenodd" clip-rule="evenodd" points="255.455,241.096 262.604,243.876 267.371,247.981 271.741,253.541 
		273.858,260.161 274.521,266.648 274.124,274.327 272.535,279.887 270.549,284.52 267.238,287.831 264.061,290.479 
		258.104,292.332 242.482,292.994 259.693,293.524 273.064,291.141 280.214,289.154 288.687,285.713 297.159,280.548 
		305.235,275.121 312.518,267.045 319.005,255.792 322.712,242.95 322.975,232.358 321.784,225.872 319.534,221.106 
		315.164,214.618 310.002,210.912 305.765,209.323 300.469,209.323 295.174,211.44 290.541,213.691 284.848,219.384 
		280.875,226.136 279.815,231.167 279.815,234.477 280.214,237.788 283.259,241.096 288.554,242.023 291.864,240.833 
		294.646,238.978 295.57,234.61 294.908,227.99 292.129,226.401 292.393,230.505 292.129,234.61 290.275,237.389 286.701,238.316 
		283.654,236.066 282.331,230.77 283.92,224.812 288.024,219.251 293.057,214.618 298.086,212.764 301.792,211.838 306.691,212.102 
		309.869,213.426 313.974,217.133 317.019,221.239 319.269,226.534 319.93,233.55 319.93,239.507 318.739,247.981 316.753,254.865 
		313.046,261.749 307.618,268.898 301.396,274.856 293.718,279.491 287.363,280.814 281.803,279.754 279.021,277.371 
		277.433,275.386 277.698,265.854 276.242,257.116 271.741,247.981 272.005,244.936 275.58,248.245 281.67,250.76 287.627,251.422 
		292.791,249.833 297.425,247.319 301.529,242.023 302.985,235.8 301.792,230.903 297.953,228.123 299.94,232.094 300.469,236.727 
		298.086,242.155 294.908,245.2 290.541,247.451 284.582,247.716 279.815,245.862 275.844,242.95 272.402,239.244 272.666,229.578 
		275.58,223.356 279.287,218.324 286.701,209.057 291.202,204.292 293.057,202.703 298.352,201.512 303.381,201.247 
		309.207,202.703 313.444,204.689 309.34,200.584 302.058,199.261 296.102,198.73 290.275,201.114 276.771,217.398 270.549,227.062 
		268.96,232.623 268.96,236.727 269.887,240.302 255.455,241.096 255.455,241.096 	"/>
	<polygon fill-rule="evenodd" clip-rule="evenodd" points="300.469,231.829 297.425,229.843 293.585,229.314 292.129,226.401 
		296.231,227.062 299.542,228.917 300.469,231.829 300.469,231.829 	"/>
	<polygon fill-rule="evenodd" clip-rule="evenodd" points="313.974,204.556 316.753,201.247 320.195,198.73 324.035,197.54 
		328.007,198.069 331.846,200.849 330.919,202.041 327.741,202.041 323.902,203.1 321.784,205.484 321.256,208.661 321.256,211.44 
		322.712,215.28 325.49,219.65 327.741,226.136 328.668,233.021 328.934,242.42 327.478,251.159 324.563,260.558 319.93,269.164 
		314.9,275.519 306.428,283.064 294.775,291.669 282.993,296.303 271.608,299.348 253.867,301.997 272.271,301.731 284.848,298.819 
		295.041,294.847 303.646,289.287 311.192,282.667 319.534,274.194 325.889,263.074 329.066,255.394 331.449,245.862 
		331.846,235.139 330.788,225.872 327.079,217.795 324.962,212.764 324.829,209.985 325.623,207.468 326.551,205.218 
		328.934,204.292 332.377,203.629 334.361,201.776 331.713,197.54 326.551,194.891 321.256,195.024 316.224,196.48 312.518,199.393 
		307.618,200.849 313.974,204.556 313.974,204.556 	"/>
	<polygon fill-rule="evenodd" clip-rule="evenodd" points="308.413,200.982 302.19,198.202 299.409,195.421 298.352,192.375 
		299.014,186.551 298.484,180.858 297.159,174.371 298.748,170.135 289.215,167.354 293.188,173.18 295.836,179.798 
		296.497,186.816 295.836,190.391 294.247,195.024 291.468,199.658 285.113,207.204 296.231,199.393 308.413,200.982 
		308.413,200.982 	"/>
	<polygon fill-rule="evenodd" clip-rule="evenodd" points="7.354,292.332 245.66,292.332 246.056,295.245 7.354,295.774 
		7.354,292.332 7.354,292.332 	"/>
	<polygon fill-rule="evenodd" clip-rule="evenodd" points="7.354,301.202 236.127,301.334 246.851,304.114 7.354,304.645 
		7.354,301.202 7.354,301.202 	"/>
	<polygon fill-rule="evenodd" clip-rule="evenodd" points="9.34,293.125 9.34,304.379 7.222,304.512 7.354,292.332 9.34,293.125 
		9.34,293.125 	"/>
	<polygon fill-rule="evenodd" clip-rule="evenodd" points="225.535,301.467 238.245,301.202 249.101,301.069 270.416,299.878 
		279.42,299.216 292.129,295.907 282.464,299.481 275.049,301.599 269.887,302.791 261.016,303.851 250.689,304.247 
		238.906,304.247 225.535,301.467 225.535,301.467 	"/>
	<polygon fill-rule="evenodd" clip-rule="evenodd" points="242.878,295.508 251.882,295.245 259.164,294.45 266.048,293.789 
		271.741,292.332 281.141,288.492 281.67,284.786 262.472,291.669 252.941,292.994 240.894,292.332 220.107,290.611 
		212.694,292.862 242.878,295.508 242.878,295.508 	"/>
	<polygon fill-rule="evenodd" clip-rule="evenodd" fill="#FF7F7F" points="23.242,111.088 24.433,108.573 26.154,106.322 
		29.067,106.719 30.523,109.631 28.405,113.603 23.242,116.119 19.005,116.781 15.033,114.663 12.518,111.088 13.18,105.263 
		18.343,99.57 24.433,94.804 32.377,90.435 41.776,88.714 51.441,88.714 63.753,90.435 80.7,94.407 100.823,103.409 114.856,115.06 
		128.228,133.462 144.38,156.233 161.326,175.297 173.241,185.359 192.702,194.891 213.885,200.584 231.229,204.16 242.878,202.306 
		256.911,198.069 269.887,189.331 276.375,178.608 278.096,165.5 277.433,157.558 279.287,152.261 283.524,148.29 288.952,146.833 
		283.259,152.526 282.065,160.205 281.803,170.267 283.126,179.402 281.008,187.346 272.005,195.29 256.25,206.674 241.951,210.381 
		228.978,210.912 214.68,210.25 201.308,209.19 188.73,206.278 172.843,199.128 154.839,187.213 140.144,173.445 128.89,157.954 
		123.197,146.833 113.4,131.609 101.22,119.296 91.026,109.631 80.964,102.747 69.049,98.114 56.472,92.95 44.292,91.229 
		34.098,92.289 24.036,97.054 18.343,101.291 14.636,107.116 15.431,112.544 19.005,114.663 22.977,114.266 26.154,112.147 
		27.61,110.293 26.948,108.573 23.242,111.088 23.242,111.088 	"/>
	<polygon fill-rule="evenodd" clip-rule="evenodd" fill="#FF7F7F" points="298.219,159.014 298.219,156.101 296.231,155.042 
		293.585,155.571 291.731,157.69 290.674,160.734 291.335,163.912 293.585,165.765 296.896,166.56 299.94,165.765 302.72,163.382 
		303.912,159.543 304.045,155.042 302.587,151.07 299.94,148.025 296.63,146.172 292.262,145.907 288.952,145.775 285.113,146.437 
		281.271,149.217 278.758,154.115 284.582,150.143 289.746,147.893 293.32,147.76 297.689,148.687 299.808,150.276 302.323,153.585 
		303.118,157.027 302.587,160.734 301.264,163.515 298.484,164.971 295.307,165.104 292.658,162.853 292.262,160.073 
		293.851,157.292 295.703,156.498 298.219,159.014 298.219,159.014 	"/>
	<polygon fill-rule="evenodd" clip-rule="evenodd" fill="#FF7F7F" points="72.756,127.107 73.815,147.231 71.167,166.692 
		65.342,185.757 64.813,198.467 67.99,208.924 77.919,221.634 93.277,228.519 108.104,230.638 99.102,220.576 92.747,212.633 
		88.51,202.173 85.333,189.463 83.744,178.342 83.744,162.456 83.744,147.231 80.037,131.344 71.167,114 61.106,103.409 
		69.578,118.767 72.756,127.107 72.756,127.107 	"/>
	<polygon fill-rule="evenodd" clip-rule="evenodd" fill="#FFFF00" points="10.267,299.084 244.6,299.481 12.65,297.097 
		10.267,299.084 10.267,299.084 	"/>
	<polygon fill-rule="evenodd" clip-rule="evenodd" fill="#FFFF00" points="299.278,234.742 297.689,240.169 294.646,242.817 
		289.348,245.465 282.86,244.274 277.565,240.434 275.182,235.933 275.182,229.446 278.227,223.223 290.143,207.601 
		278.227,228.254 277.169,233.55 278.625,238.582 281.271,241.626 286.701,243.611 291.599,242.817 295.438,240.169 
		298.086,232.094 299.278,234.742 299.278,234.742 	"/>
	<polygon fill-rule="evenodd" clip-rule="evenodd" fill="#FFFF00" points="297.689,206.41 307.353,206.41 314.9,211.044 
		320.725,217.531 324.168,229.446 323.77,242.817 320.725,255.792 315.43,266.913 308.147,275.651 298.086,282.931 286.701,289.817 
		266.444,297.097 286.303,291.405 302.72,282.536 313.444,272.208 319.93,262.279 324.962,248.113 326.021,235.139 325.623,224.017 
		321.123,213.691 319.534,207.601 321.519,203.365 324.962,199.525 321.123,201.114 317.283,205.616 318.078,210.646 
		313.046,206.41 305.368,204.16 297.689,206.41 297.689,206.41 	"/>
	<polygon fill-rule="evenodd" clip-rule="evenodd" fill="#FFFF00" points="15.166,252.084 17.417,254.468 19.137,257.381 
		19.932,260.955 20.064,265.588 20.594,270.62 21.521,274.988 23.374,279.225 26.684,283.064 29.994,286.109 33.568,288.096 
		39.394,289.817 44.689,290.213 64.018,290.213 70.108,286.771 75.801,282.005 79.111,275.651 81.362,267.309 81.494,259.896 
		80.17,252.615 76.331,246.393 73.815,244.539 78.184,253.011 79.508,260.426 79.64,266.781 77.257,275.121 73.55,281.608 
		68.254,285.713 62.694,288.096 56.737,288.89 40.717,288.757 36.745,287.831 31.979,285.05 26.684,280.152 23.109,272.871 
		21.785,265.192 22.844,260.69 25.095,256.454 28.14,252.879 31.583,250.232 35.289,248.245 41.776,246.789 37.937,246.789 
		31.317,248.643 26.684,251.688 23.109,256.586 21.521,260.69 20.461,255.924 17.681,252.084 15.166,252.084 15.166,252.084 	"/>
	<polygon fill-rule="evenodd" clip-rule="evenodd" fill="#FFFF00" points="94.468,260.955 93.145,265.854 92.879,270.884 
		93.939,276.842 96.586,281.608 101.087,286.109 105.722,288.625 110.09,290.213 116.445,290.611 120.549,290.346 123.727,289.154 
		128.89,286.903 132.994,282.667 135.112,278.431 135.377,273.532 134.98,269.428 133.523,266.12 131.405,264.132 133.391,267.045 
		134.583,271.81 134.318,277.371 132.2,282.005 127.831,286.109 122.668,288.359 117.239,289.154 112.871,289.022 108.237,288.228 
		104,286.375 99.632,282.667 95.66,276.577 94.733,271.547 95.13,265.059 96.321,260.558 98.837,256.851 99.367,260.293 
		100.69,262.942 102.676,265.059 106.383,265.854 102.809,263.205 101.75,260.028 101.087,256.983 101.617,254.071 102.941,251.026 
		105.324,249.171 108.237,247.981 112.341,246.524 120.417,245.862 132.067,245.465 161.061,245.862 167.284,246.921 
		171.387,249.304 175.758,254.733 176.419,258.97 176.021,263.074 175.625,266.25 177.742,259.764 177.213,253.938 174.169,249.304 
		169.534,246.127 164.106,244.671 151.529,244.141 112.209,244.936 108.369,245.862 102.676,248.776 99.102,252.216 96.321,256.321 
		94.468,260.955 94.468,260.955 	"/>
	<polygon fill-rule="evenodd" clip-rule="evenodd" fill="#FFFF00" points="150.867,265.987 147.16,269.295 146.233,274.327 
		146.366,278.166 148.086,282.005 151.264,284.786 154.574,286.507 159.737,287.565 166.887,287.565 157.883,286.375 
		153.647,284.653 150.47,282.005 148.749,278.034 147.954,273.267 149.014,269.295 150.867,265.987 150.867,265.987 	"/>
	<polygon fill-rule="evenodd" clip-rule="evenodd" fill="#FFFF00" points="222.227,269.428 224.478,272.208 225.404,275.253 
		225.668,278.034 224.345,282.403 221.3,285.581 217.989,287.698 213.752,289.419 210.312,289.419 204.884,288.89 200.779,286.903 
		196.807,284.52 193.763,281.475 190.585,277.371 189.26,273.665 188.465,266.382 189.393,259.896 192.041,254.204 195.086,249.966 
		199.984,246.524 206.207,244.804 213.752,244.671 254.927,244.804 258.633,245.598 262.076,247.848 265.52,251.555 
		268.165,255.394 261.547,248.776 255.986,246.26 246.587,245.995 211.9,245.73 203.956,246.524 198.528,248.908 194.953,252.748 
		192.041,257.645 191.379,261.22 192.041,263.47 193.763,265.192 196.278,266.515 198.13,267.045 195.483,267.045 193.231,266.515 
		190.054,263.868 190.054,270.354 191.512,276.313 195.086,281.608 200.381,285.581 205.279,287.433 211.635,288.096 
		215.077,287.831 219.578,285.581 223.021,282.403 224.74,277.636 223.946,273.93 220.506,268.634 222.227,269.428 222.227,269.428 
			"/>
	<polygon fill-rule="evenodd" clip-rule="evenodd" fill="#FFFF00" points="240.364,269.958 237.317,274.194 236.789,278.034 
		237.055,282.536 240.628,287.698 248.043,290.611 254.528,291.141 260.089,289.817 265.782,284.653 270.283,275.651 
		264.725,283.859 259.561,287.963 254,289.817 247.248,288.228 243.806,286.639 240.1,282.27 238.378,277.503 240.364,269.958 
		240.364,269.958 	"/>
	<polygon fill-rule="evenodd" clip-rule="evenodd" fill="#FF7F7F" points="115.386,228.519 195.483,230.638 239.834,230.638 
		252.015,225.872 266.709,214.75 240.364,226.401 185.553,226.93 161.326,225.342 137.627,221.634 115.916,214.22 101.22,202.173 
		107.045,218.987 115.386,228.519 115.386,228.519 	"/>
</g>
</svg>
