<?xml version="1.0" encoding="utf-8"?>
<!-- Generator: Adobe Illustrator 16.0.0, SVG Export Plug-In . SVG Version: 6.00 Build 0)  -->
<!DOCTYPE svg PUBLIC "-//W3C//DTD SVG 1.1//EN" "http://www.w3.org/Graphics/SVG/1.1/DTD/svg11.dtd">
<svg version="1.1" id="Layer_1" xmlns="http://www.w3.org/2000/svg" xmlns:xlink="http://www.w3.org/1999/xlink" x="0px" y="0px"
	 width="440.217px" height="625px" viewBox="0 0 440.217 625" enable-background="new 0 0 440.217 625" xml:space="preserve">
<g>
	<polygon fill-rule="evenodd" clip-rule="evenodd" fill="#FF0000" points="153.987,282.254 153.143,302.809 139.627,318.293 
		128.929,343.351 128.929,362.217 143.287,390.373 139.627,397.977 119.073,407.266 81.627,419.936 67.267,459.073 52.626,470.054 
		34.606,490.327 20.248,515.385 19.12,540.443 27.567,566.911 44.179,580.987 68.394,585.776 131.18,609.144 214.521,584.084 
		257.882,535.656 327.708,495.112 350.796,462.168 350.796,424.725 338.69,382.491 332.493,337.159 333.901,265.08 153.987,282.254 
			"/>
	<polygon fill-rule="evenodd" clip-rule="evenodd" fill="#FFC98E" points="288.008,338.565 315.882,377.705 257.882,429.51 
		300.116,380.801 251.688,418.527 297.582,371.51 253.095,402.762 295.327,363.625 260.415,382.491 290.259,354.334 
		264.921,365.313 283.222,348.139 267.454,352.645 282.095,340.256 288.008,338.565 	"/>
	<polygon fill-rule="evenodd" clip-rule="evenodd" fill="#FFC98E" points="175.667,488.637 191.434,416.84 177.075,441.899 
		175.667,488.637 	"/>
	<polygon fill-rule="evenodd" clip-rule="evenodd" fill="#FFC98E" points="156.521,312.1 166.094,307.313 163.841,312.1 
		172.288,313.791 169.754,318.293 177.075,321.391 172.288,327.588 181.861,330.965 174.541,335.47 178.201,341.945 
		168.628,343.351 168.628,351.237 160.181,351.237 157.647,360.528 150.608,359.122 144.414,363.625 139.627,354.334 
		132.308,360.528 133.433,348.139 138.501,332.374 150.608,315.197 156.521,312.1 	"/>
	<polygon fill-rule="evenodd" clip-rule="evenodd" fill="#FFC98E" points="142.161,407.266 88.946,423.036 120.2,418.527 
		94.859,429.51 105.841,435.704 126.395,423.036 138.501,413.741 142.161,407.266 	"/>
	<polygon fill-rule="evenodd" clip-rule="evenodd" fill="#FFC98E" points="123.86,534.249 74.588,492.015 135.967,527.774 
		86.695,481.035 146.948,524.676 105.841,479.346 159.056,523.269 125.269,479.346 168.628,518.483 150.608,484.131 
		168.628,501.308 181.861,519.891 201.289,523.269 123.86,534.249 	"/>
	<polygon fill-rule="evenodd" clip-rule="evenodd" fill="#FFFFFF" points="140.753,146.264 127.521,155.554 119.073,171.321 
		120.2,186.808 126.395,201.166 120.2,210.458 122.734,232.42 120.2,249.594 127.521,268.177 146.948,287.041 162.434,294.925 
		185.522,302.809 213.396,321.391 248.31,319.983 292.796,304.216 331.367,279.159 351.922,257.196 354.456,240.021 
		354.456,193.282 351.922,188.497 359.241,177.516 359.241,165.126 358.115,152.457 326.581,149.359 140.753,146.264 	"/>
	<polygon fill-rule="evenodd" clip-rule="evenodd" fill="#B5B5B5" points="342.349,158.652 348.261,166.534 348.261,174.418 
		339.815,190.186 331.367,201.166 339.815,208.769 343.476,222.846 341.224,233.826 332.493,243.119 343.476,247.905 
		346.01,257.196 337.562,266.771 308.563,298.023 283.222,310.411 262.669,315.197 300.116,288.731 255.629,307.313 
		304.901,279.159 255.629,298.023 308.563,269.866 257.882,285.352 298.988,265.08 313.349,252.692 273.647,268.177 
		251.688,271.275 232.543,271.275 264.921,265.08 233.668,263.672 278.437,257.196 236.2,255.789 280.971,251.001 293.921,243.119 
		302.65,230.731 301.241,224.535 284.349,229.322 266.328,235.517 242.114,235.517 220.435,232.42 221.561,227.633 236.2,230.731 
		237.329,226.225 245.774,227.633 250.562,221.439 262.669,222.846 264.921,218.341 272.241,221.439 277.027,215.245 
		286.883,215.245 286.883,208.769 298.988,205.672 303.775,198.069 292.796,194.691 333.901,178.924 331.367,169.632 
		342.349,158.652 	"/>
	<polygon fill-rule="evenodd" clip-rule="evenodd" fill="#00EAFF" points="212.832,134.719 264.64,64.612 271.679,90.233 
		224.095,190.186 212.832,134.719 	"/>
	<polygon fill-rule="evenodd" clip-rule="evenodd" fill="#70230C" points="119.918,89.107 209.736,132.466 221.561,187.089 
		212.832,191.312 201.006,191.312 151.734,173.855 119.918,89.107 	"/>
	<polygon fill-rule="evenodd" clip-rule="evenodd" fill="#FF0000" points="121.607,91.358 178.764,30.542 262.948,65.737 
		210.581,132.466 124.705,91.358 121.607,91.358 	"/>
	<polygon fill-rule="evenodd" clip-rule="evenodd" fill="#00EAFF" points="204.104,42.932 145.259,101.495 173.977,182.021 
		205.793,191.312 182.705,118.952 242.397,55.319 204.104,42.932 	"/>
	<polygon fill-rule="evenodd" clip-rule="evenodd" fill="#FFFFFF" points="146.104,101.495 202.415,44.902 158.772,97.553 
		210.581,49.971 166.938,100.651 215.366,53.349 173.977,103.747 222.405,55.319 180.172,107.971 228.881,59.262 178.764,117.263 
		146.104,101.495 	"/>
	<polygon fill-rule="evenodd" clip-rule="evenodd" fill="#0CC10C" points="308.28,15.056 347.981,22.377 272.522,193.282 
		261.542,197.507 244.648,200.604 223.251,193.282 306.591,20.406 308.28,15.056 	"/>
	<polygon fill-rule="evenodd" clip-rule="evenodd" fill="#FFEA00" points="255.911,123.175 296.173,133.593 279.562,173.855 
		236.763,163.438 255.911,123.175 	"/>
	<polygon fill-rule="evenodd" clip-rule="evenodd" fill="#FFEA00" points="295.61,41.804 328.833,47.154 315.319,82.067 
		280.405,77.844 295.61,41.804 	"/>
	<polygon fill-rule="evenodd" clip-rule="evenodd" fill="#FFFFFF" points="273.368,193.282 317.854,92.485 331.087,67.426 
		347.981,55.319 371.913,49.971 396.409,55.319 414.71,68.552 421.748,86.292 422.592,106.845 414.71,149.079 408.231,165.409 
		397.253,171.603 382.894,173.855 373.32,169.632 367.689,158.371 368.534,144.854 378.95,113.883 378.95,104.592 374.164,98.398 
		367.689,98.398 358.397,104.592 352.767,113.04 331.087,169.632 313.067,182.021 296.173,189.059 282.939,192.157 273.368,193.282 
			"/>
	<polygon fill-rule="evenodd" clip-rule="evenodd" fill="#B5B5B5" points="407.388,62.359 422.592,87.135 421.748,111.913 
		413.021,153.021 405.98,165.409 395,170.759 385.989,170.759 386.835,161.466 385.989,157.243 391.62,157.243 389.369,153.021 
		395,154.991 393.31,149.079 399.506,146.826 398.943,142.884 405.136,123.175 402.601,116.136 408.231,117.263 405.136,110.787 
		411.611,110.787 405.136,105.718 412.456,105.718 405.98,99.523 412.456,99.523 410.767,89.107 407.388,71.65 407.388,62.359 	"/>
	<polygon fill-rule="evenodd" clip-rule="evenodd" fill="#B5B5B5" points="327.989,169.632 348.544,120.078 355.019,104.592 
		364.593,100.651 375.854,99.523 378.107,88.262 373.32,90.233 369.378,86.292 364.593,90.233 355.864,91.358 351.078,96.427 
		344.882,99.523 347.135,102.622 341.504,103.747 343.192,107.971 339.253,107.971 341.504,113.883 336.718,113.04 328.833,134.719 
		329.679,140.913 323.485,141.758 327.989,147.953 321.796,146.826 325.736,153.021 315.319,156.118 318.696,175.826 
		327.989,169.632 	"/>
	<polygon fill-rule="evenodd" clip-rule="evenodd" fill="#FF0000" points="378.95,121.205 385.989,117.263 397.253,118.106 
		405.98,123.175 415.555,134.719 405.136,165.409 402.601,154.991 397.253,145.7 390.214,142.884 380.64,141.758 373.32,142.884 
		368.534,144.854 372.476,130.495 378.95,121.205 	"/>
	<polygon fill-rule="evenodd" clip-rule="evenodd" fill="#FF0000" points="376.419,97.553 376.419,89.107 380.64,80.942 
		389.369,73.903 400.35,70.805 405.98,69.679 416.117,72.775 423.437,90.233 421.748,108.815 416.117,96.427 408.231,91.358 
		397.253,92.485 389.369,95.302 384.583,100.651 381.483,109.941 376.419,97.553 	"/>
	<polygon fill-rule="evenodd" clip-rule="evenodd" fill="#FF0000" points="324.893,86.292 332.776,85.165 342.349,90.233 
		351.922,97.553 352.767,106.845 370.786,97.553 369.378,82.067 363.747,69.679 357.553,62.359 341.504,61.514 324.893,86.292 	"/>
	<polygon fill-rule="evenodd" clip-rule="evenodd" fill="#FF0000" points="302.65,132.466 307.437,129.37 317.854,131.623 
		329.679,136.689 336.155,146.826 345.444,122.331 337.562,111.913 327.989,105.718 319.262,105.718 309.688,111.913 
		302.65,132.466 	"/>
	<polygon fill-rule="evenodd" clip-rule="evenodd" fill="#FF0000" points="283.505,170.759 293.921,170.759 304.339,172.729 
		314.476,179.769 328.833,170.759 330.522,163.438 323.485,154.146 314.476,150.204 305.747,146.826 300.396,147.953 
		294.765,149.079 283.505,170.759 	"/>
	<polygon fill-rule="evenodd" clip-rule="evenodd" points="151.172,173.855 116.539,91.358 177.075,28.572 266.328,63.767 
		273.931,85.446 307.153,12.522 351.078,16.747 357.271,56.164 345.165,63.767 333.056,75.591 322.358,89.388 277.027,191.593 
		264.921,197.507 340.659,22.659 310.253,18.717 228.6,191.593 231.698,195.535 237.608,199.477 224.095,199.477 213.677,193.563 
		201.289,191.593 216.492,189.623 222.405,183.709 266.328,91.358 260.415,67.707 178.482,34.484 124.142,93.33 159.056,175.826 
		180.172,185.68 159.056,177.797 151.172,173.855 	"/>
	<polygon fill-rule="evenodd" clip-rule="evenodd" points="208.891,134.719 259.009,71.65 264.921,95.302 255.911,79.533 
		263.511,105.156 251.405,85.446 259.009,113.04 246.899,93.33 255.911,122.894 242.114,99.242 248.31,132.748 237.608,107.126 
		243.804,144.292 231.698,115.01 237.608,152.176 225.503,124.865 234.794,162.03 220.998,130.777 228.6,175.826 215.085,134.719 
		222.405,189.623 208.891,134.719 	"/>
	<polygon fill-rule="evenodd" clip-rule="evenodd" points="175.667,181.739 186.084,189.623 198.191,193.563 207.483,193.563 
		180.172,122.894 201.289,189.623 171.162,116.981 193.687,187.651 162.151,111.068 184.677,183.709 153.143,107.126 
		177.075,177.797 146.948,105.156 171.162,177.797 175.667,181.739 	"/>
	<polygon fill-rule="evenodd" clip-rule="evenodd" points="183.27,118.952 237.608,57.853 240.706,59.825 183.27,118.952 	"/>
	<polygon fill-rule="evenodd" clip-rule="evenodd" points="148.355,99.242 204.385,42.087 208.891,42.087 148.355,99.242 	"/>
	<polygon fill-rule="evenodd" clip-rule="evenodd" points="124.142,91.358 208.891,134.719 210.298,130.777 124.142,91.358 	"/>
	<polygon fill-rule="evenodd" clip-rule="evenodd" points="290.542,191.593 315.038,177.797 321.233,171.321 326.864,164 
		328.271,162.03 331.649,155.272 347.135,113.04 351.641,105.718 358.96,98.398 365.718,95.583 370.786,95.302 377.544,97.834 
		381.483,103.186 382.894,111.068 381.483,120.922 376.981,130.777 373.883,140.35 369.94,151.049 372.476,162.03 380.077,167.943 
		385.989,170.195 393.593,170.195 398.099,167.943 404.292,164 419.214,109.379 418.651,89.107 413.3,73.339 404.855,64.048 
		393.593,57.853 378.67,53.911 362.059,54.756 354.456,57.572 353.892,51.096 369.378,47.437 389.369,48.843 408.231,56.728 
		419.214,69.679 424.847,83.476 427.098,102.903 424.001,122.894 410.486,166.253 402.601,174.137 390.495,176.952 376.136,174.701 
		366.001,165.409 363.466,153.021 364.872,146.545 376.981,113.04 375.571,105.156 370.786,101.212 364.028,102.903 
		358.679,107.126 354.175,113.04 351.078,124.865 348.823,135.282 359.524,146.826 361.214,159.777 360.087,167.661 
		355.019,156.118 350.513,155.272 345.728,156.961 342.913,158.371 338.407,164 333.339,170.478 322.358,178.36 315.038,182.584 
		304.619,187.089 290.542,191.593 	"/>
	<polygon fill-rule="evenodd" clip-rule="evenodd" points="361.776,166.253 361.776,173.855 360.37,179.769 355.864,185.68 
		358.679,191.593 360.37,197.507 360.37,205.389 358.679,211.303 357.271,217.215 357.271,227.069 357.271,232.982 357.271,240.866 
		357.271,248.749 355.864,256.351 351.078,264.236 345.165,270.147 336.155,280.284 316.444,295.77 292.231,311.536 
		272.522,319.422 254.503,325.333 236.2,327.305 224.095,325.333 211.987,321.391 198.191,313.508 186.084,305.624 174.258,299.712 
		160.462,295.77 153.143,293.8 142.442,287.886 130.055,278.031 124.142,270.147 119.637,260.293 118.229,254.381 118.229,246.778 
		120.763,234.109 119.637,229.041 118.229,221.157 118.229,209.333 119.637,199.477 117.103,192.157 114.288,182.584 
		116.539,172.167 121.045,160.06 127.239,152.176 133.152,146.545 140.753,144.292 145.54,150.204 136.249,154.146 128.929,160.06 
		122.734,170.195 121.045,179.769 122.734,189.904 125.55,196.943 127.239,204.264 124.424,213.837 123.297,220.875 
		127.239,235.235 125.55,242.274 124.142,248.749 124.424,254.381 127.239,262.546 130.899,269.866 135.404,275.779 141.88,280.565 
		145.54,283.944 154.55,289.856 163.56,293.8 190.871,305.624 219.59,321.391 224.095,317.452 228.6,321.391 231.698,319.422 
		236.2,321.391 239.298,319.422 246.899,319.422 249.717,315.479 255.911,317.452 261.822,311.536 266.328,313.508 271.114,307.596 
		277.027,309.566 281.533,301.682 287.728,303.654 292.231,295.77 298.145,297.74 299.833,289.856 304.339,292.109 307.153,283.944 
		311.942,286.197 313.349,276.061 319.262,281.973 320.95,266.207 325.455,276.061 326.864,256.351 334.467,268.458 
		336.155,252.692 342.067,262.265 342.067,246.778 348.261,256.351 351.078,242.555 348.261,238.895 343.759,236.643 
		339.253,238.895 326.864,248.749 314.756,256.351 301.241,266.207 289.134,272.4 278.437,276.061 287.728,264.236 289.134,266.207 
		293.639,258.604 298.145,262.265 301.241,252.692 305.747,256.351 307.153,242.555 313.349,250.439 316.444,236.643 
		319.262,242.555 322.358,229.041 325.455,236.643 328.554,223.128 334.467,231.012 337.562,217.215 340.659,225.099 
		343.759,213.273 349.671,221.157 346.854,205.389 339.253,201.449 326.864,207.361 311.942,217.215 299.833,225.099 
		280.126,232.982 271.114,236.643 259.009,238.895 277.027,231.012 283.222,223.128 287.728,225.099 292.231,217.215 
		295.327,219.187 299.833,209.333 302.931,215.245 305.747,207.361 310.253,207.361 314.756,197.507 319.262,203.419 
		320.95,193.563 324.048,199.477 328.554,189.623 334.467,193.563 336.155,183.709 340.659,189.623 340.659,179.769 
		346.854,183.709 355.864,173.855 357.271,164 352.767,150.204 361.776,166.253 	"/>
	<polygon fill-rule="evenodd" clip-rule="evenodd" points="133.152,201.449 151.172,211.303 177.075,223.128 169.754,215.245 
		164.968,213.273 162.151,209.333 159.056,211.303 154.55,203.419 153.143,207.361 150.044,197.507 146.948,199.477 
		143.851,193.563 140.753,197.507 137.657,187.651 134.559,191.593 133.152,179.769 128.929,187.651 133.152,201.449 	"/>
	<polygon fill-rule="evenodd" clip-rule="evenodd" points="134.559,240.866 162.151,256.351 151.172,246.778 150.044,236.643 
		146.948,242.555 142.442,234.671 139.346,238.895 137.657,229.041 133.152,234.671 134.559,240.866 	"/>
	<polygon fill-rule="evenodd" clip-rule="evenodd" points="340.659,274.09 336.155,303.654 336.155,327.305 336.155,347.013 
		340.659,366.721 345.165,382.491 351.078,401.916 355.864,423.595 355.864,443.306 352.767,463.016 343.759,482.723 
		334.467,498.211 322.358,508.065 308.843,515.948 295.327,523.832 278.437,529.745 266.328,535.656 257.319,543.542 
		248.31,551.424 236.2,563.25 222.405,579.016 213.677,592.813 193.687,596.756 162.151,602.387 139.346,610.27 128.929,612.522 
		118.229,610.27 104.432,602.387 92.325,598.445 80.218,592.813 62.198,590.84 46.996,584.93 30.383,574.793 21.373,565.222 
		15.46,547.481 13.771,533.686 15.46,515.948 21.373,500.18 28.693,490.327 42.49,474.56 56.004,463.016 63.607,455.131 
		80.218,419.657 94.015,413.741 128.929,401.916 137.657,396.288 139.346,390.373 133.152,380.236 124.142,362.782 124.142,345.042 
		130.336,327.305 137.657,313.508 145.54,301.682 150.044,295.77 146.948,292.109 155.958,293.8 154.55,305.624 142.442,317.452 
		134.559,333.215 131.744,343.071 130.336,354.897 133.152,366.721 137.657,378.267 145.54,386.151 146.948,392.061 
		143.851,397.977 137.657,403.887 83.316,423.595 66.704,463.016 54.598,472.87 40.802,486.385 28.693,500.18 22.782,515.948 
		22.782,527.774 24.188,549.454 30.383,563.25 39.393,573.104 54.598,580.708 68.111,582.958 81.908,584.93 87.821,579.016 
		80.218,571.133 57.694,547.481 69.801,549.454 72.616,555.366 77.403,555.366 78.812,561.279 83.316,561.279 84.724,567.191 
		92.325,567.191 94.015,573.104 104.432,574.793 107.53,584.93 116.539,588.59 121.045,594.784 127.239,602.387 148.355,598.445 
		178.482,590.84 207.483,584.93 215.085,579.016 225.503,521.86 233.105,523.832 233.105,510.317 237.608,513.976 239.298,504.122 
		245.211,508.065 246.899,496.521 254.503,500.18 255.911,490.327 260.415,492.578 261.822,484.696 268.017,484.696 
		272.522,476.811 277.027,472.87 287.728,464.986 266.328,492.578 254.503,508.065 242.114,521.86 237.608,531.717 246.899,521.86 
		249.717,531.717 255.911,513.976 259.009,525.801 263.511,512.006 271.114,521.86 273.931,510.317 280.126,517.919 
		283.222,504.122 292.231,512.006 295.327,498.211 299.833,506.094 304.339,492.578 308.843,500.18 314.756,486.385 
		319.262,496.521 324.048,482.723 328.554,486.385 334.467,474.56 339.253,476.811 345.165,463.016 346.854,441.336 
		342.067,419.657 339.253,409.801 334.467,429.51 328.554,419.657 325.455,435.42 319.262,419.657 314.756,433.452 310.253,421.626 
		304.339,431.482 299.833,423.595 290.542,433.452 287.728,427.539 280.126,433.452 275.62,433.452 266.328,437.393 
		273.931,425.567 278.437,423.595 280.126,419.657 286.039,417.684 287.728,411.772 295.327,413.741 298.145,405.859 
		304.339,403.887 305.747,397.977 310.253,399.947 308.843,394.034 316.444,394.034 316.444,388.122 319.262,388.122 
		320.95,382.491 324.048,384.179 322.358,376.297 317.854,376.297 319.262,368.693 316.444,366.721 316.444,362.782 
		311.942,360.811 311.942,356.587 305.747,354.897 304.339,348.985 299.833,347.013 299.833,341.102 295.327,339.131 
		296.737,335.188 290.542,333.215 290.542,329.277 308.843,345.042 322.358,350.674 325.455,347.013 317.854,341.102 
		325.455,341.102 317.854,335.188 328.554,333.215 317.854,327.305 324.048,323.362 317.854,319.422 325.455,315.479 
		313.349,313.508 325.455,305.624 317.854,305.624 326.864,297.74 328.554,283.944 340.659,274.09 	"/>
	<polygon fill-rule="evenodd" clip-rule="evenodd" points="183.27,502.152 187.773,474.56 193.687,472.87 189.182,464.986 
		193.687,463.016 189.182,455.131 198.191,453.162 193.687,445.278 201.289,443.306 195.095,433.452 202.978,433.452 
		198.191,423.595 207.483,425.567 202.978,415.713 210.298,415.713 208.891,403.887 217.9,421.626 208.891,419.657 219.59,439.364 
		204.385,427.539 217.9,445.278 204.385,437.393 213.677,453.162 202.978,451.19 205.793,459.073 201.289,463.016 202.978,468.926 
		198.191,474.56 196.784,482.723 183.27,512.006 183.27,502.152 	"/>
	<polygon fill-rule="evenodd" clip-rule="evenodd" points="110.628,569.161 56.004,525.801 65.297,527.774 68.111,529.745 
		71.209,527.774 74.306,533.686 80.218,529.745 80.218,537.627 87.821,531.717 86.412,541.571 95.423,535.656 94.015,545.511 
		104.432,537.627 103.025,547.481 112.035,541.571 112.035,551.424 118.229,549.454 119.637,576.765 110.628,569.161 	"/>
	<polygon fill-rule="evenodd" clip-rule="evenodd" points="74.306,459.073 86.412,429.51 81.908,451.19 94.015,429.51 
		89.229,447.247 103.025,435.42 96.831,443.306 94.015,449.218 74.306,459.073 	"/>
	<polygon fill-rule="evenodd" clip-rule="evenodd" points="163.56,394.034 174.258,403.887 171.162,394.034 186.084,405.859 
		177.075,394.034 198.191,399.947 181.58,386.151 219.59,399.947 187.773,380.236 233.105,397.977 195.095,374.325 252.813,390.373 
		201.289,364.471 259.009,378.267 205.793,356.587 255.911,364.471 210.298,347.013 255.911,350.674 208.891,337.159 
		260.415,339.131 199.881,323.362 233.105,327.305 192.561,309.566 178.482,299.712 193.687,313.508 186.084,317.452 
		195.095,323.362 190.871,325.333 198.191,335.188 189.182,335.188 196.784,343.071 187.773,345.042 193.687,350.674 
		181.58,350.674 186.084,358.838 177.075,356.587 180.172,366.721 169.754,366.721 171.162,376.297 160.462,372.636 
		159.056,380.236 151.172,376.297 151.172,384.179 140.753,374.325 150.044,392.061 157.647,394.034 163.56,394.034 	"/>
	<polygon fill-rule="evenodd" clip-rule="evenodd" points="202.978,504.122 242.114,429.51 215.085,494.268 245.211,449.218 
		219.59,498.211 259.009,457.1 219.59,517.919 211.987,515.948 213.677,512.006 205.793,510.317 207.483,506.094 202.978,504.122 	
		"/>
	<polygon fill-rule="evenodd" clip-rule="evenodd" points="297.017,42.932 331.649,47.437 314.476,85.728 280.405,78.408 
		310.532,80.378 283.505,72.494 311.659,74.747 287.445,66.02 317.29,69.116 289.134,59.543 321.233,64.612 293.076,53.911 
		324.048,57.572 295.048,48.28 324.61,50.252 297.017,42.932 	"/>
	<polygon fill-rule="evenodd" clip-rule="evenodd" points="258.726,124.301 297.017,133.029 279.562,174.137 238.173,164 
		280.405,169.068 242.397,157.525 282.377,163.156 245.774,151.612 285.194,157.525 250.279,145.981 287.445,151.049 
		253.657,138.097 290.259,144.011 258.163,131.623 293.076,137.253 258.726,124.301 	"/>
	<polygon fill-rule="evenodd" clip-rule="evenodd" points="403.167,154.708 411.611,128.806 407.669,123.739 401.478,120.641 
		394.155,119.516 404.855,125.146 393.875,123.739 403.729,129.37 392.749,128.806 404.292,134.438 391.62,133.593 402.04,138.097 
		391.058,138.097 401.478,143.166 388.243,141.758 399.506,147.389 401.478,157.525 403.167,154.708 	"/>
	<polygon fill-rule="evenodd" clip-rule="evenodd" points="407.106,71.086 413.3,80.378 414.429,89.951 415.272,98.398 
		409.36,93.611 402.601,91.922 396.688,92.768 393.31,94.174 400.912,87.699 392.749,89.107 399.787,83.476 388.807,86.292 
		397.815,78.97 387.681,81.223 396.126,74.747 385.427,78.97 393.875,71.932 401.478,69.679 407.106,71.086 	"/>
	<polygon fill-rule="evenodd" clip-rule="evenodd" points="352.767,100.651 359.524,94.738 364.593,91.922 369.94,91.922 
		368.252,81.786 366.563,88.544 362.903,81.786 363.466,89.951 358.96,83.476 359.524,90.796 353.892,86.292 356.146,92.768 
		348.823,89.951 352.202,94.738 345.165,94.738 351.078,97.834 352.767,100.651 	"/>
	<polygon fill-rule="evenodd" clip-rule="evenodd" points="342.349,117.825 333.901,142.602 328.271,135.282 323.485,133.029 
		316.728,131.623 325.736,130.777 317.854,126.554 329.116,127.96 321.233,122.331 331.087,124.301 324.048,117.825 
		333.339,119.516 325.174,113.04 333.339,114.447 326.581,107.971 338.407,112.194 340.659,115.854 342.349,117.825 	"/>
	<polygon fill-rule="evenodd" clip-rule="evenodd" points="326.299,159.777 318.417,178.36 311.097,181.175 308.28,176.952 
		304.619,173.293 300.679,171.884 310.253,172.729 302.368,166.815 311.097,168.225 304.057,162.592 314.476,164 306.874,158.371 
		316.728,158.933 309.125,154.146 317.854,155.272 311.659,149.642 320.668,151.612 324.61,156.118 326.299,159.777 	"/>
</g>
</svg>
